<?xml version="1.0" standalone="no"?>
<!DOCTYPE svg PUBLIC "-//W3C//DTD SVG 1.1//EN" "http://www.w3.org/Graphics/SVG/1.1/DTD/svg11.dtd">
<svg xmlns="http://www.w3.org/2000/svg">
<metadata>Generated by Fontastic.me</metadata>
<defs>
<font id="iris" horiz-adv-x="512">
<font-face font-family="iris" units-per-em="512" ascent="480" descent="-32"/>
<missing-glyph horiz-adv-x="512" />

<glyph glyph-name="add" unicode="&#97;" d="M256 456c-110 0-200-90-200-200 0-110 90-200 200-200 110 0 200 90 200 200 0 110-90 200-200 200z m0-384c-101 0-184 83-184 184 0 101 83 184 184 184 101 0 184-83 184-184 0-101-83-184-184-184z m8 312l-16 0 0-120-120 0 0-16 120 0 0-120 16 0 0 120 120 0 0 16-120 0z"/>
<glyph glyph-name="delete" unicode="&#98;" d="M256 456c-110 0-200-90-200-200 0-110 90-200 200-200 110 0 200 90 200 200 0 110-90 200-200 200z m0-384c-101 0-184 83-184 184 0 101 83 184 184 184 101 0 184-83 184-184 0-101-83-184-184-184z m96 269l-11 11-85-85-85 85-11-11 85-85-85-85 11-11 85 85 85-85 11 11-85 85z"/>
<glyph glyph-name="share" unicode="&#100;" d="M335 395c-1-6-3-11-5-16 20-12 37-29 49-49 5 2 10 4 16 5-14 25-35 46-60 60z m-5-262c2-5 4-10 5-16 25 14 46 35 60 60-6 1-11 3-16 5-12-20-29-37-49-49z m-197 49c-5-2-10-4-16-5 14-25 35-46 60-60 1 6 3 11 5 16-20 12-37 29-49 49z m49 197c-2 5-4 10-5 16-25-14-46-35-60-60 6-1 11-3 16-5 12 20 29 37 49 49z m122 29c0 0 0 0 0 1 0 0 0 0 0 0 0-1 0-2 0-2 0 0 0 1 0 1z m-96-1c0 0 0 1 0 2 0 0 0 0 0 0 0-1 0-1 0-1 0 0 0-1 0-1z m2-15c-1 4-2 8-2 12 0 1 0 2 0 3 0 0 0 1 0 1 0 0 0 0 0 1-11-4-21-8-31-14 1-6 3-11 5-16 8 5 18 10 28 13z m94-287c0-1 0-1 0-2 0 0 0 0 0 0 0 1 0 1 0 1 0 0 0 1 0 1z m-96-1c0 0 0 0 0-1 0 0 0 0 0 0 0 1 0 1 0 2 0 0 0-1 0-1z m94 16c1-4 2-9 2-13 0-1 0-1 0-2 0 0 0-1 0-1 0 0 0 0 0-1 11 4 21 8 31 14-1 6-3 11-5 16-8-5-18-10-28-13z m106 88c0 0 0 0 1 0 0 0 0 0 0 0-1 0-2 0-2 0 0 0 1 0 1 0z m-1 96c0 0 1 0 2 0 0 0 0 0 0 0-1 0-1 0-1 0 0 0-1 0-1 0z m0 0c0 0 1 0 1 0 0 0 0 0 1 0-4 11-8 21-14 31-6-1-11-3-16-5 5-8 10-18 13-28 4 1 8 2 13 2 0 0 1 0 2 0z m-303 0c0 0 0 0-1 0 0 0 0 0 0 0 1 0 2 0 2 0 0 0-1 0-1 0z m1-96c0 0-1 0-2 0 0 0 0 0 0 0 1 0 1 0 1 0 0 0 1 0 1 0z m15 2c-4-1-8-2-12-2-1 0-2 0-3 0 0 0-1 0-1 0 0 0 0 0-1 0 4-11 8-21 14-31 6 1 11 3 16 5-5 8-10 18-13 28z m105-95c4 14 16 24 31 24 15 0 27-10 31-24 5 2 10 3 14 4 1 1 1 1 1 1-6 20-24 35-46 35-26 0-48-22-48-48 0-1 0-1 0-2 0 5 1 10 3 14 4-1 9-2 14-4z m31-40c-15 0-28 10-31 24-6 1-11 3-17 4 2-25 23-44 48-44 25 0 46 19 48 44-6-1-11-3-17-4-3-14-16-24-31-24z m45 44c-4-1-9-2-14-4 0-2 1-5 1-8 0-3 0-5-1-8 6 1 11 3 17 4 0 1 0 1 0 2 0 5-1 10-3 14z m-77-12c0 3 1 6 1 8-5 2-10 3-14 4-2-4-3-9-3-14 0-1 0-1 0-2 6-1 11-3 17-4-1 3-1 5-1 8z m80-2c0 1 0 1 0 2 0 4-1 9-2 13 0 0 0 0-1-1 2-4 3-9 3-14z m-17 291c-4-13-16-24-31-24-15 0-27 11-31 24-5-1-10-2-14-3-1-1-1-1-1-1 5-20 24-36 46-36 26 0 48 22 48 48 0 1 0 2 0 3 0-5-1-10-3-14-4 1-9 2-14 3z m-31 40c15 0 27-10 31-23 5-1 11-3 17-4-2 24-23 43-48 43-25 0-46-19-48-43 6 1 12 3 17 4 4 13 16 23 31 23z m-45-43c4 1 9 2 14 3-1 3-1 6-1 8 0 3 1 6 1 9-5-1-11-3-17-4 0-1 0-2 0-2 0-5 1-10 3-14z m77 11c0-2 0-5-1-8 5-1 10-2 14-3 2 4 3 9 3 14 0 0 0 1 0 2-6 1-12 3-17 4 0-3 1-6 1-9z m-80 3c0-1 0-2 0-3 0-4 1-8 2-12 0 0 0 0 1 1-2 4-3 9-3 14z m-132-151c0 15 10 27 23 31 1 5 3 11 4 17-24-2-43-23-43-48 0-25 19-46 43-48-1 6-3 12-4 17-13 4-23 16-23 31z m40 31c13-4 24-16 24-31 0-15-11-27-24-31 1-5 2-10 3-14 1-1 1-1 1-1 20 5 36 24 36 46 0 26-22 48-48 48-1 0-2 0-3 0 5 0 10-1 14-3-1-4-2-9-3-14z m3-76c-1 4-2 9-3 14-3-1-6-1-8-1-3 0-6 1-9 1 1-5 3-11 4-17 1 0 2 0 2 0 5 0 10 1 14 3z m-11 77c2 0 5 0 8-1 1 5 2 10 3 14-4 2-9 3-14 3 0 0-1 0-2 0-1-6-3-12-4-17 3 0 6 1 9 1z m-3-80c1 0 2 0 3 0 4 0 8 1 12 2 0 0 0 0-1 1-4-2-9-3-14-3z m348 48c0 25-20 46-44 48 1-6 3-11 4-17 14-4 24-16 24-31 0-15-10-27-24-31-1-6-3-11-4-17 24 2 44 23 44 48z m-56-31c-14 4-24 16-24 31 0 15 10 27 24 31-2 5-3 10-4 14-1 1-1 1-1 1-20-5-35-24-35-46 0-26 21-48 48-48 0 0 1 0 2 0-5 0-10 1-14 3 1 4 2 9 4 14z m8-1c-3 0-6 0-8 1-2-5-3-10-4-14 4-2 9-3 14-3 0 0 1 0 2 0 1 6 3 11 4 17-3-1-5-1-8-1z m-12 77c1-4 2-9 4-14 2 1 5 1 8 1 3 0 5 0 8-1-1 6-3 11-4 17-1 0-2 0-2 0-5 0-10-1-14-3z m14 3c-1 0-2 0-2 0-5 0-9-1-13-2 0 0 0 0 1-1 4 2 9 3 14 3z"/>
<glyph glyph-name="open" unicode="&#99;" d="M440 256c0-101-83-184-184-184-101 0-184 83-184 184 0 101 83 184 184 184l0 16c-110 0-200-90-200-200 0-110 90-200 200-200 110 0 200 90 200 200z m-190 6l12-12 122 122 0-82 16 0 0 110-110 0 0-16 82 0z"/>
<glyph glyph-name="settings" unicode="&#101;" d="M120 295l0 129-16 0 0-129c-18-4-32-20-32-39 0-19 14-35 32-39l0-129 16 0 0 129c18 4 32 20 32 39 0 19-14 35-32 39z m0-62c-3 0-5-1-8-1-3 0-5 1-8 1-9 4-16 13-16 23 0 10 7 19 16 23 3 0 5 1 8 1 3 0 5-1 8-1 9-4 16-13 16-23 0-10-7-19-16-23z m144 142l0 49-16 0 0-49c-18-4-32-20-32-39 0-19 14-35 32-39l0-209 16 0 0 209c18 4 32 20 32 39 0 19-14 35-32 39z m0-62c-3 0-5-1-8-1-3 0-5 1-8 1-9 4-16 13-16 23 0 10 7 19 16 23 3 0 5 1 8 1 3 0 5-1 8-1 9-4 16-13 16-23 0-10-7-19-16-23z m144-98l0 209-16 0 0-209c-18-4-32-20-32-39 0-19 14-35 32-39l0-49 16 0 0 49c18 4 32 20 32 39 0 19-14 35-32 39z m0-62c-3 0-5-1-8-1-3 0-5 1-8 1-9 4-16 13-16 23 0 10 7 19 16 23 3 0 5 1 8 1 3 0 5-1 8-1 9-4 16-13 16-23 0-10-7-19-16-23z"/>
<glyph glyph-name="search" unicode="&#102;" d="M302 222l-3-3c23 24 37 57 37 93 0 75-61 136-136 136-75 0-136-61-136-136 0-75 61-136 136-136 36 0 69 14 93 37l-3-3 144-144 12 12z m-102-30c-66 0-120 54-120 120 0 66 54 120 120 120 66 0 120-54 120-120 0-66-54-120-120-120z"/>
<glyph glyph-name="lock" unicode="&#103;" d="M240 181l0-32c0-6 5-12 12-12l8 0c7 0 12 6 12 12l0 32c10 5 16 16 16 27 0 18-14 32-32 32-18 0-32-14-32-32 0-11 6-22 16-27z m144 103l-32 0 0 56c0 53-43 96-96 96-53 0-96-43-96-96l0-56-32 0c-4 0-8-3-8-8l0-192c0-4 4-8 8-8l256 0c4 0 8 4 8 8l0 192c0 5-4 8-8 8z m-208 56c0 44 36 80 80 80 44 0 80-36 80-80l0-56-160 0z m200-248l-240 0 0 176 240 0z"/>
<glyph glyph-name="user" unicode="&#104;" d="M302 255c34 17 58 52 58 93 0 57-47 104-104 104-57 0-104-47-104-104 0-41 24-76 58-93-88-21-154-100-154-195l16 0c0 101 83 184 184 184 101 0 184-83 184-184l16 0c0 95-66 174-154 195z m-134 93c0 49 39 88 88 88 49 0 88-39 88-88 0-49-39-88-88-88-49 0-88 39-88 88z"/>
<glyph glyph-name="key" unicode="&#105;" d="M332 456c-57 0-104-46-104-104 0-26 10-49 25-67l-177-178 11-11 23 23 63-63 12 11-64 63 38 38 47-48 11 12-47 47 95 94c18-15 41-25 67-25 58 0 104 47 104 104 0 58-46 104-104 104z m0-192c-48 0-88 40-88 88 0 49 40 88 88 88 49 0 88-39 88-88 0-48-39-88-88-88z"/>
<glyph glyph-name="check" unicode="&#106;" d="M256 72c-101 0-184 83-184 184 0 101 83 184 184 184l0 16c-110 0-200-90-200-200 0-110 90-200 200-200 110 0 200 90 200 200l-16 0c0-101-83-184-184-184z m-106 206l-12-12 102-101 222 221-12 12-210-211z"/>
<glyph glyph-name="email" unicode="&#107;" d="M256 456c-110 0-200-90-200-200 0-110 90-200 200-200l0 16c-101 0-184 83-184 184 0 101 83 184 184 184 101 0 184-83 184-184l16 0c0 110-90 200-200 200z m184-200l0-97-72 0 0 202-16 0 0-48c-20 33-55 55-96 55-62 0-112-50-112-112 0-62 50-112 112-112 41 0 76 22 96 55l0-56 104 0 0 113z m-184-96c-53 0-96 43-96 96 0 53 43 96 96 96 53 0 96-43 96-96 0-53-43-96-96-96z"/>
<glyph glyph-name="download" unicode="&#108;" d="M126 126c-72 72-72 188 0 260 72 72 188 72 260 0 72-72 72-188 0-260l11-11c78 78 78 204 0 282-78 78-204 78-282 0-78-78-78-204 0-282z m138 130l-16 0 0-173-58 59-12-12 78-77 78 77-12 12-58-59z"/>
<glyph glyph-name="edit" unicode="&#109;" d="M185 95l248 248-90 90-264-264 0-90 88 0 0 16z m-23 0l-67 0 0 67 248 248 67-67z m5 0l0-16 256 0 0 16z"/>
<glyph glyph-name="upload" unicode="&#110;" d="M386 386c72-72 72-188 0-260-72-72-188-72-260 0-72 72-72 188 0 260l-11 11c-78-78-78-204 0-282 78-78 204-78 282 0 78 78 78 204 0 282z m-138-130l16 0 0 173 58-59 12 12-78 77-78-77 12-12 58 59z"/>
<glyph glyph-name="down" unicode="&#111;" d="M264 358l-16 0 0-173-58 58-12-11 78-78 78 78-12 11-58-58z"/>
<glyph glyph-name="left" unicode="&#112;" d="M354 252l0 16-173 0 58 58-11 12-78-78 78-78 11 12-58 58z"/>
<glyph glyph-name="right" unicode="&#113;" d="M158 268l0-16 173 0-58-58 11-12 78 78-78 78-11-12 58-58z"/>
<glyph glyph-name="up" unicode="&#114;" d="M248 162l16 0 0 173 58-58 12 11-78 78-78-78 12-11 58 58z"/>
<glyph glyph-name="circle" unicode="&#115;" d="M256 456c-110 0-200-90-200-200 0-110 90-200 200-200 110 0 200 90 200 200 0 110-90 200-200 200z m0-384c-101 0-184 83-184 184 0 101 83 184 184 184 101 0 184-83 184-184 0-101-83-184-184-184z"/>
<glyph glyph-name="filter" unicode="&#116;" d="M58 427l118-118 0-237 16 0 0 244-122 122z m384 11l-122-122 0-244 16 0 0 237 118 118z"/>
<glyph glyph-name="logout" unicode="&#117;" d="M386 126c-72-72-188-72-260 0-72 72-72 188 0 260 72 72 188 72 260 0l11 11c-78 78-204 78-282 0-78-78-78-204 0-282 78-78 204-78 282 0z m-130 138l0-16 173 0-59-58 12-12 77 78-77 78-12-12 59-58z"/>
<glyph glyph-name="options" unicode="&#118;" d="M112 296c-22 0-40-18-40-40 0-22 18-40 40-40 22 0 40 18 40 40 0 22-18 40-40 40z m0-64c-13 0-24 11-24 24 0 13 11 24 24 24 13 0 24-11 24-24 0-13-11-24-24-24z m144 64c-22 0-40-18-40-40 0-22 18-40 40-40 22 0 40 18 40 40 0 22-18 40-40 40z m0-64c-13 0-24 11-24 24 0 13 11 24 24 24 13 0 24-11 24-24 0-13-11-24-24-24z m144 64c-22 0-40-18-40-40 0-22 18-40 40-40 22 0 40 18 40 40 0 22-18 40-40 40z m0-64c-13 0-24 11-24 24 0 13 11 24 24 24 13 0 24-11 24-24 0-13-11-24-24-24z"/>
<glyph glyph-name="off" unicode="&#119;" d="M160 184c40 0 72 32 72 72 0 40-32 72-72 72-40 0-72-32-72-72 0-40 32-72 72-72z m0 128c31 0 56-25 56-56 0-31-25-56-56-56-31 0-56 25-56 56 0 31 25 56 56 56z m0-160l192 0c57 0 104 47 104 104 0 57-47 104-104 104l-192 0c-57 0-104-47-104-104 0-57 47-104 104-104z m0 192l192 0c49 0 88-39 88-88 0-49-39-88-88-88l-192 0c-49 0-88 39-88 88 0 49 39 88 88 88z"/>
<glyph glyph-name="on" unicode="&#120;" d="M352 360l-192 0c-57 0-104-47-104-104 0-57 47-104 104-104l192 0c57 0 104 47 104 104 0 57-47 104-104 104z m0-176c-40 0-72 32-72 72 0 40 32 72 72 72 40 0 72-32 72-72 0-40-32-72-72-72z"/>
</font>
</defs>
</svg>
