<?xml version="1.0" encoding="utf-8"?>
<!-- Generator: Adobe Illustrator 19.1.0, SVG Export Plug-In . SVG Version: 6.00 Build 0)  -->
<svg version="1.1" id="Layer_1" xmlns="http://www.w3.org/2000/svg" xmlns:xlink="http://www.w3.org/1999/xlink" x="0px" y="0px"
	 viewBox="0 0 64 64" style="enable-background:new 0 0 64 64;" xml:space="preserve">
<style type="text/css">
	.st0{fill:#0E86AF;}
</style>
<g>
	<path class="st0" d="M5.4296875,17.8544922v-5.2734375l23.7548828-9.5947266v5.2246094l-18.8476563,7.0068359l18.8476563,7.03125
		v5.2246094L5.4296875,17.8544922z"/>
</g>
<g>
	<path class="st0" d="M34.8447266,12.3369141v-5.078125h22.9248047v5.078125H34.8447266z M34.8447266,23.1767578v-5.078125
		h22.9248047v5.078125H34.8447266z"/>
</g>
<g>
	<path class="st0" d="M24.765625,32.3017578l-2.3681641,5.9570313h6.3720703v5.078125h-8.3984375l-2.2705078,5.7617188h10.6689453
		v5.078125H16.0742188l-2.34375,5.9326172h-3.7109375l2.34375-5.9326172H5.8447266v-5.078125h8.5449219l2.2705078-5.7617188
		H5.8447266v-5.078125h12.8417969l2.3681641-5.9570313H24.765625z"/>
</g>
<g>
	<path class="st0" d="M35.4296875,58.4736328v-5.2246094l18.8476563-7.03125l-18.8476563-7.0068359v-5.2246094l23.7548828,9.5947266
		v5.2734375L35.4296875,58.4736328z"/>
</g>
</svg>
