<?xml version="1.0" encoding="utf-8"?>
<!-- Generator: Adobe Illustrator 19.1.0, SVG Export Plug-In . SVG Version: 6.00 Build 0)  -->
<svg version="1.1" id="Layer_1" xmlns="http://www.w3.org/2000/svg" xmlns:xlink="http://www.w3.org/1999/xlink" x="0px" y="0px"
	 viewBox="0 0 64 64" style="enable-background:new 0 0 64 64;" xml:space="preserve">
<style type="text/css">
	.st0{fill:#FFFFFF;}
</style>
<rect x="4" y="4" class="st0" width="26" height="12"/>
<rect x="4" y="48" class="st0" width="26" height="12"/>
<rect x="34" y="26" class="st0" width="26" height="12"/>
<path class="st0" d="M16.5,9h22.5830078c1.7412109,0,3.1982422,0.3583984,4.3701172,1.0742188
	c1.171875,0.7163086,2.1240234,1.7905273,2.8564453,3.2226563c0.5039063,0.9931641,0.7568359,2.1728516,0.7568359,3.5400391
	v13.7958984c0,0.4882813-0.09375,0.8383789-0.28125,1.0498047C46.5981445,31.8945313,46.3500977,32,46.0410156,32
	c-0.3095703,0-0.5615234-0.1054688-0.7568359-0.3173828c-0.1953125-0.2114258-0.2929688-0.5615234-0.2929688-1.0498047
	l0.0244141-13.7470703c0-1.7412109-0.5698242-3.1494141-1.7089844-4.2236328
	c-1.1396484-1.0742188-2.5473633-1.6113281-4.2236328-1.6113281H18.5751953"/>
<path class="st0" d="M18.5087891,52.9492188h20.5078125c1.6762695,0,3.0839844-0.5371094,4.2236328-1.6113281
	c1.1391602-1.0742188,1.7089844-2.4824219,1.7089844-4.2236328l-0.0244141-13.7470703
	c0-0.4882813,0.0976563-0.8383789,0.2929688-1.0498047C45.4130859,32.1054688,45.6650391,32,45.9746094,32
	c0.309082,0,0.5571289,0.1054688,0.7441406,0.3173828C46.90625,32.5288086,47,32.8789063,47,33.3671875v13.7958984
	c0,1.3671875-0.2529297,2.546875-0.7568359,3.5400391c-0.7324219,1.4321289-1.6845703,2.5063477-2.8564453,3.2226563
	C42.2148438,54.6416016,40.7578125,55,39.0166016,55H16.4335938"/>
</svg>
