<?xml version="1.0" encoding="utf-8"?>
<!-- Generator: Adobe Illustrator 19.1.0, SVG Export Plug-In . SVG Version: 6.00 Build 0)  -->
<svg version="1.1" id="Layer_1" xmlns="http://www.w3.org/2000/svg" xmlns:xlink="http://www.w3.org/1999/xlink" x="0px" y="0px"
	 viewBox="0 0 59 40.6" style="enable-background:new 0 0 59 40.6;" xml:space="preserve">
<style type="text/css">
	.st0{fill:#FFFFFF;}
	.st1{fill:#0E86AF;}
</style>
<g>
	<path class="st0" d="M4.6,8.6c0-1.3,0.5-2.4,1.4-3.3c0.9-0.9,2-1.4,3.3-1.4s2.4,0.5,3.3,1.4c0.9,0.9,1.4,2,1.4,3.3
		c0,1.3-0.5,2.4-1.4,3.3c-0.9,0.9-2,1.4-3.3,1.4s-2.4-0.5-3.3-1.4C5,10.9,4.6,9.8,4.6,8.6z"/>
</g>
<g>
	<path class="st0" d="M18,8.6c0-1.3,0.5-2.4,1.4-3.3c0.9-0.9,2-1.4,3.3-1.4s2.4,0.5,3.3,1.4c0.9,0.9,1.4,2,1.4,3.3
		c0,1.3-0.5,2.4-1.4,3.3c-0.9,0.9-2,1.4-3.3,1.4s-2.4-0.5-3.3-1.4C18.5,10.9,18,9.8,18,8.6z"/>
</g>
<g>
	<path class="st0" d="M31.5,8.6c0-1.3,0.5-2.4,1.4-3.3c0.9-0.9,2-1.4,3.3-1.4c1.3,0,2.4,0.5,3.3,1.4c0.9,0.9,1.4,2,1.4,3.3
		c0,1.3-0.5,2.4-1.4,3.3c-0.9,0.9-2,1.4-3.3,1.4c-1.3,0-2.4-0.5-3.3-1.4C32,10.9,31.5,9.8,31.5,8.6z"/>
</g>
<g>
	<path class="st0" d="M44.7,8.6c0-1.3,0.5-2.4,1.4-3.3c0.9-0.9,2-1.4,3.3-1.4s2.4,0.5,3.3,1.4c0.9,0.9,1.4,2,1.4,3.3
		c0,1.3-0.5,2.4-1.4,3.3c-0.9,0.9-2,1.4-3.3,1.4s-2.4-0.5-3.3-1.4C45.2,10.9,44.7,9.8,44.7,8.6z"/>
</g>
<g>
	<path class="st1" d="M4.6,20.3C4.6,19,5,17.9,5.9,17c0.9-0.9,2-1.4,3.3-1.4s2.4,0.5,3.3,1.4c0.9,0.9,1.4,2,1.4,3.3
		c0,1.3-0.5,2.4-1.4,3.3c-0.9,0.9-2,1.4-3.3,1.4s-2.4-0.5-3.3-1.4C5,22.6,4.6,21.6,4.6,20.3z"/>
</g>
<g>
	<path class="st0" d="M18,20.3c0-1.3,0.5-2.4,1.4-3.3c0.9-0.9,2-1.4,3.3-1.4s2.4,0.5,3.3,1.4c0.9,0.9,1.4,2,1.4,3.3
		c0,1.3-0.5,2.4-1.4,3.3c-0.9,0.9-2,1.4-3.3,1.4s-2.4-0.5-3.3-1.4C18.5,22.6,18,21.6,18,20.3z"/>
</g>
<g>
	<path class="st0" d="M31.5,20.3c0-1.3,0.5-2.4,1.4-3.3c0.9-0.9,2-1.4,3.3-1.4c1.3,0,2.4,0.5,3.3,1.4c0.9,0.9,1.4,2,1.4,3.3
		c0,1.3-0.5,2.4-1.4,3.3c-0.9,0.9-2,1.4-3.3,1.4c-1.3,0-2.4-0.5-3.3-1.4C32,22.6,31.5,21.6,31.5,20.3z"/>
</g>
<g>
	<path class="st0" d="M44.7,20.3c0-1.3,0.5-2.4,1.4-3.3c0.9-0.9,2-1.4,3.3-1.4s2.4,0.5,3.3,1.4c0.9,0.9,1.4,2,1.4,3.3
		c0,1.3-0.5,2.4-1.4,3.3c-0.9,0.9-2,1.4-3.3,1.4s-2.4-0.5-3.3-1.4C45.2,22.6,44.7,21.6,44.7,20.3z"/>
</g>
<g>
	<path class="st0" d="M4.6,32.2c0-1.3,0.5-2.4,1.4-3.3c0.9-0.9,2-1.4,3.3-1.4s2.4,0.5,3.3,1.4c0.9,0.9,1.4,2,1.4,3.3
		s-0.5,2.4-1.4,3.3c-0.9,0.9-2,1.4-3.3,1.4s-2.4-0.5-3.3-1.4C5,34.5,4.6,33.4,4.6,32.2z"/>
</g>
<g>
	<path class="st0" d="M18,32.2c0-1.3,0.5-2.4,1.4-3.3c0.9-0.9,2-1.4,3.3-1.4s2.4,0.5,3.3,1.4c0.9,0.9,1.4,2,1.4,3.3
		s-0.5,2.4-1.4,3.3c-0.9,0.9-2,1.4-3.3,1.4s-2.4-0.5-3.3-1.4C18.5,34.5,18,33.4,18,32.2z"/>
</g>
<g>
	<path class="st1" d="M31.5,32.2c0-1.3,0.5-2.4,1.4-3.3c0.9-0.9,2-1.4,3.3-1.4c1.3,0,2.4,0.5,3.3,1.4c0.9,0.9,1.4,2,1.4,3.3
		s-0.5,2.4-1.4,3.3c-0.9,0.9-2,1.4-3.3,1.4c-1.3,0-2.4-0.5-3.3-1.4C32,34.5,31.5,33.4,31.5,32.2z"/>
</g>
<g>
	<path class="st0" d="M44.7,32.2c0-1.3,0.5-2.4,1.4-3.3c0.9-0.9,2-1.4,3.3-1.4s2.4,0.5,3.3,1.4c0.9,0.9,1.4,2,1.4,3.3
		s-0.5,2.4-1.4,3.3c-0.9,0.9-2,1.4-3.3,1.4s-2.4-0.5-3.3-1.4C45.2,34.5,44.7,33.4,44.7,32.2z"/>
</g>
</svg>
