<?xml version="1.0" encoding="utf-8"?>
<!-- Generator: Adobe Illustrator 19.1.0, SVG Export Plug-In . SVG Version: 6.00 Build 0)  -->
<svg version="1.1" id="Layer_1" xmlns="http://www.w3.org/2000/svg" xmlns:xlink="http://www.w3.org/1999/xlink" x="0px" y="0px"
	 viewBox="-293 385 24 24" style="enable-background:new -293 385 24 24;" xml:space="preserve">
<style type="text/css">
	.st0{fill:#0886AF;}
</style>
<path class="st0" d="M-291,387v19v1h1h19v-2h-18v-18H-291z M-275,387c-1.1,0-2,0.9-2,2s0.9,2,2,2s2-0.9,2-2S-273.9,387-275,387z
	 M-277,392c-1.1,0-2,0.9-2,2s0.9,2,2,2c1.1,0,2-0.9,2-2S-275.9,392-277,392z M-283,393c-1.1,0-2,0.9-2,2s0.9,2,2,2s2-0.9,2-2
	S-281.9,393-283,393z M-273,396c-1.1,0-2,0.9-2,2s0.9,2,2,2s2-0.9,2-2S-271.9,396-273,396z M-279,398c-1.1,0-2,0.9-2,2
	c0,1.1,0.9,2,2,2s2-0.9,2-2C-277,398.9-277.9,398-279,398z M-285,399c-1.1,0-2,0.9-2,2c0,1.1,0.9,2,2,2s2-0.9,2-2
	C-283,399.9-283.9,399-285,399z"/>
</svg>
