<?xml version="1.0" encoding="utf-8"?>
<!-- Generator: Adobe Illustrator 18.1.1, SVG Export Plug-In . SVG Version: 6.00 Build 0)  -->
<svg version="1.1" id="Layer_1" xmlns="http://www.w3.org/2000/svg" xmlns:xlink="http://www.w3.org/1999/xlink" x="0px" y="0px"
	 viewBox="0 0 160 80" enable-background="new 0 0 160 80" xml:space="preserve">
<rect x="0" y="0.0000005" fill-rule="evenodd" clip-rule="evenodd" fill="#4D4C4C" width="160" height="80"/>
<polygon fill-rule="evenodd" clip-rule="evenodd" fill="#FFFFFF" points="158.703125,78.6666641 1.2991129,78.6666641 
	1.2991129,1.3437506 158.703125,1.3437506 158.703125,78.6666641 158.703125,78.6666641 "/>
<path fill-rule="evenodd" clip-rule="evenodd" fill="#231F20" d="M61.1802902,35.0721397
	c0,5.8626442,4.0636063,10.3846893,9.9352036,10.3846893c5.8894577,0,10.3407516-4.4281502,10.3407516-10.9946251
	c0-6.1593227-4.4512939-10.3615417-9.7192535-10.3615417C64.6978912,24.1006622,61.1802902,29.7271156,61.1802902,35.0721397
	L61.1802902,35.0721397L61.1802902,35.0721397L61.1802902,35.0721397z M64.1355438,34.1486588
	c0-5.9935932,3.1104355-9.358366,6.7256012-9.358366c4.5102081,0,7.6219635,4.0223141,7.6219635,10.8675861
	c0,5.8394661-3.0139084,9.1156311-6.6869354,9.1156311C67.1689148,44.77351,64.1355438,40.2183266,64.1355438,34.1486588
	L64.1355438,34.1486588L64.1355438,34.1486588L64.1355438,34.1486588z"/>
<path fill-rule="evenodd" clip-rule="evenodd" fill="#231F20" d="M85.1511078,29.6768799
	c-0.6228256,0-0.9529114-0.042347-1.3022003-0.5920506h-0.2338181c-0.0397186,1.2059307-0.1746292,2.71772-0.2735367,4.1482983
	h0.3519135c0.3300858-1.0415459,0.6985703-1.6990871,0.9721069-2.1022911
	c0.3482361-0.4686966,0.8939972-0.9376545,2.9539413-0.9376545h1.2046204v11.3838863
	c0,2.5428467-0.1746445,2.8226967-2.3516312,3.0912361v0.3221931h6.6680069v-0.3221931
	c-2.2743149-0.2685394-2.4684219-0.5483894-2.4684219-3.0912361V30.193182h1.7298584
	c1.4205551,0,2.0986099,0.332716,2.4697266,0.7987804c0.3493042,0.4521255,0.6023102,1.1096687,0.9902573,2.2411652
	l0.3506165-0.0783768c-0.1170578-1.3522015-0.2325211-3.0783482-0.2530365-4.0699215h-0.2338181
	c-0.3684921,0.4521255-0.583107,0.5920506-1.1841049,0.5920506H85.1511078L85.1511078,29.6768799L85.1511078,29.6768799
	L85.1511078,29.6768799z"/>
<path fill-rule="evenodd" clip-rule="evenodd" fill="#231F20" d="M101.9465637,44.9904976v-0.3221931l-0.4852676-0.1259842
	c-1.2432785-0.2748528-1.4397583-0.5639076-1.087822-1.9752579c0.2119751-0.9439659,0.7948227-2.7829781,1.0686188-3.5136375
	h4.9570923c0.6819839,1.8095551,1.3421555,3.6485367,1.5167999,4.2201004
	c0.1938477,0.725666,0.1372986,0.960537-0.6998825,1.1762123l-0.7577515,0.2185669v0.3221931h5.5196686v-0.3221931
	c-1.4384384-0.362175-1.7285461-0.5483894-2.4671021-2.4813004c-0.934761-2.4029198-1.9442139-5.3952599-3.0717697-8.3618584
	l-1.7314377-4.5038643l-0.2901077,0.0886364l-4.7440338,12.4225407c-0.8950424,2.2874565-1.1675186,2.446579-2.6648865,2.8358459
	v0.3221931H101.9465637L101.9465637,44.9904976L101.9465637,44.9904976L101.9465637,44.9904976z M103.8718414,32.3443642h0.0589142
	l2.2153931,5.9976006h-4.4704971L103.8718414,32.3443642L103.8718414,32.3443642L103.8718414,32.3443642L103.8718414,32.3443642z"/>
<path fill-rule="evenodd" clip-rule="evenodd" fill="#231F20" d="M127.4725952,33.5889893
	c-0.1938477-1.6299133-0.2901077-2.8576756-0.3684921-3.6577721c-0.816925-0.2041016-2.4118576-0.6099358-4.4139404-0.6099358
	c-4.3934326,0-8.5533066,2.8458405-8.5533066,8.1755791c0,4.6207085,3.5367889,7.842926,8.3978577,7.842926
	c1.7503815,0,3.6164856-0.5355034,5.0559692-0.9400215c-0.1180878-0.5407639-0.137291-1.2971992-0.137291-2.1446381v-1.5975647
	c0-1.6517448,0.0962601-1.8392754,1.3805771-2.168045v-0.3274574h-5.8523865v0.3274574
	c2.5273285,0.3082542,2.6057053,0.583107,2.6057053,2.168045v2.2577362c0,1.0838928-0.3119354,1.3187637-0.8348007,1.5588989
	c-0.5265732,0.2351379-1.2648621,0.3506012-2.1009903,0.3506012c-4.5693893,0-6.2400742-4.1903801-6.2400742-7.7747726
	c0-4.4539261,2.2935104-7.2035007,5.7726898-7.2035007c2.158844,0,4.08255,0.8156147,4.9378815,3.8079548L127.4725952,33.5889893
	L127.4725952,33.5889893L127.4725952,33.5889893L127.4725952,33.5889893z"/>
<path fill-rule="evenodd" clip-rule="evenodd" fill="#231F20" d="M131.9252014,37.5431824
	c0,4.4076347,3.0525665,7.7966042,7.4449463,7.7966042c4.4331512,0,7.756897-3.313221,7.756897-8.2332115
	c0-4.6209412-3.3237457-7.7852936-7.2895203-7.7852936C134.5682678,29.3212814,131.9252014,33.5387535,131.9252014,37.5431824
	L131.9252014,37.5431824L131.9252014,37.5431824L131.9252014,37.5431824z M134.1419067,36.854866
	c0-4.4975853,2.3308563-7.0083408,5.0536041-7.0083408c3.3647766,0,5.7148285,3.0128574,5.7148285,8.1485195
	c0,4.3871193-2.2732544,6.8297539-5.0136261,6.8297539C136.416214,44.8247986,134.1419067,41.4087372,134.1419067,36.854866
	L134.1419067,36.854866L134.1419067,36.854866L134.1419067,36.854866z"/>
<path fill-rule="evenodd" clip-rule="evenodd" fill="#231F20" d="M102.7069397,21.9355087
	c-0.1964722,0-0.4673767,0.0628624-0.7203979,0.2209358c-0.4289856,0.2438164-0.8374481,0.778265-0.8374481,1.5717869
	c0,0.4342403,0.1964722,0.9297638,0.8169327,0.9297638c0.2927322,0,0.6998825-0.1680679,0.9334412-0.4108315
	c0.389267-0.349287,0.6230927-0.9260826,0.6230927-1.4576397C103.5225601,22.2950535,103.2295532,21.9355087,102.7069397,21.9355087
	L102.7069397,21.9355087L102.7069397,21.9355087L102.7069397,21.9355087z M102.5104675,22.189846
	c0.2338257,0,0.3889999,0.2104149,0.3889999,0.6496525c0,0.7898388-0.3492813,1.4615822-0.5636444,1.5386467
	c-0.0386581,0.0102577-0.0770645,0.0281429-0.1362381,0.0281429c-0.2722244,0-0.4276657-0.2966824-0.4276657-0.7485447
	c0-0.9055996,0.3892593-1.3511181,0.5639038-1.4371243C102.3950043,22.2050705,102.4513016,22.189846,102.5104675,22.189846
	L102.5104675,22.189846L102.5104675,22.189846L102.5104675,22.189846z"/>
<path fill-rule="evenodd" clip-rule="evenodd" fill="#231F20" d="M107.1774368,22.07938
	c0.1746445-1.1367893,0.2903671-1.3934631,0.4663315-1.3934631c0.1359787,0,0.2722168,0.0704899,0.4276581,0.2169895
	c0.0562897,0.0591793,0.1565018,0.0489216,0.2130432,0c0.0397186-0.0591793,0.137558-0.1501827,0.137558-0.2785664
	c0-0.1438389-0.1567535-0.2569351-0.3687439-0.2569351c-0.3903198,0-0.740921,0.2325058-0.993927,0.5060425
	c-0.2517242,0.2837963-0.4084778,0.710146-0.4855423,1.2059326h-0.3492889l-0.1746445,0.1822701l0.0178986,0.0591469h0.4676361
	c-0.0770645,0.5123882-0.1362305,0.9797688-0.2530289,1.719635c-0.1541061,1.045229-0.2530212,1.4371223-0.3492813,1.5218143
	c-0.039978,0.0486584-0.0796967,0.0833759-0.1349258,0.0833759c-0.0783844,0-0.1964798-0.0833759-0.2748413-0.112833
	c-0.0770798-0.0334034-0.1349411,0-0.192543,0.0384007c-0.0412903,0.0502357-0.09758,0.1567574-0.09758,0.2645931
	c0,0.1386108,0.1346664,0.1862164,0.2527618,0.1862164c0.1362381,0,0.4071503-0.0860062,0.6793671-0.3763771
	c0.2530289-0.2851086,0.5255127-0.8553295,0.7385559-2.0097408c0.0783768-0.4213219,0.1554565-0.7963829,0.2338181-1.3150845
	l0.58181-0.0591469l0.1372833-0.1822701H107.1774368L107.1774368,22.07938L107.1774368,22.07938L107.1774368,22.07938z"/>
<path fill-rule="evenodd" clip-rule="evenodd" fill="#231F20" d="M60.0719376,10.7175856v0.2682772
	c0.7577515,0.0578632,0.8374443,0.1144123,0.8374443,1.1404085v2.2167358c0,1.127553,0.1938438,1.8145514,0.6985741,2.2243319
	c0.4663277,0.3955765,1.0891533,0.5163021,1.6722717,0.5163021c0.6598969,0,1.3213806-0.2582817,1.7490616-0.720665
	c0.5060349-0.5623627,0.6806717-1.3587446,0.6806717-2.2885084v-0.6793728c0-1.0915194,0.0591812-1.6246538,0.0783844-1.9071341
	c0.0565491-0.3492861,0.3108826-0.4865808,0.7577515-0.5020981v-0.2682772H64.252327v0.2682772
	c0.6201935,0.0334024,0.874527,0.152812,0.9131927,0.5020981c0.0383987,0.2824802,0.0962601,0.8156147,0.0962601,1.9071341
	v0.5754805c0,1.6759424-0.5638885,2.5594158-1.709343,2.5594158c-1.1083527,0-1.5951805-0.8603277-1.5951805-2.3784924v-2.0252275
	c0-1.0259962,0.0770493-1.0825453,0.7782516-1.1404085v-0.2682772H60.0719376L60.0719376,10.7175856L60.0719376,10.7175856
	L60.0719376,10.7175856z"/>
<path fill-rule="evenodd" clip-rule="evenodd" fill="#231F20" d="M70.6286392,10.7175856v0.2682772
	c0.7577667,0.0578632,0.9721069,0.2787971,0.9721069,1.4037199v1.8711004c0,1.085207-0.0576019,1.6220236-0.0767975,1.9147606
	c-0.0591812,0.3416595-0.2929993,0.4676437-0.7603836,0.486845v0.2695923h2.2756195v-0.2695923
	c-0.6023026-0.0320892-0.8553314-0.1451855-0.8950424-0.486845c-0.0565491-0.292737-0.0962677-0.8295536-0.0962677-1.9147606
	v-2.0688896h0.0178909l3.8694992,4.8224106h0.4276657v-3.6191092c0-1.0915194,0.0591736-1.6246538,0.0988922-1.9071341
	c0.0373459-0.3492861,0.290123-0.4865808,0.7577515-0.5020981v-0.2682772h-2.296402v0.2682772
	c0.6049423,0.0334024,0.8566513,0.152812,0.9158249,0.5020981c0.0371017,0.2824802,0.0783844,0.8156147,0.0783844,1.9071341
	v1.8158674h-0.0194702l-3.7345734-4.4933767H70.6286392L70.6286392,10.7175856L70.6286392,10.7175856L70.6286392,10.7175856z"/>
<path fill-rule="evenodd" clip-rule="evenodd" fill="#231F20" d="M81.5154266,10.7175856v0.2682772
	c0.7577515,0.0578632,0.8166656,0.1296673,0.8166656,1.1596403v3.3545141c0,1.0326042-0.0589142,1.1044083-0.8166656,1.1622715
	v0.2695923h2.6635666v-0.2695923c-0.7193527-0.0578632-0.7974625-0.1296673-0.7974625-1.1622715V12.145503
	c0-1.029973,0.0781097-1.1017771,0.7974625-1.1596403v-0.2682772H81.5154266L81.5154266,10.7175856L81.5154266,10.7175856
	L81.5154266,10.7175856z"/>
<path fill-rule="evenodd" clip-rule="evenodd" fill="#231F20" d="M88.3194199,10.7175856v0.2682772
	c0.5239105,0.0578632,0.6793594,0.1144123,0.9912949,0.9720774c0.3700638,0.9568863,1.2651062,3.3148308,1.9060822,5.0291739
	h0.3889999c0.7385483-1.9481649,1.9045029-4.7787504,1.9815674-4.9725933
	c0.4276657-0.8874187,0.4676437-0.9489641,1.0699539-1.0286579v-0.2682772H92.538208v0.2682772l0.2709045,0.0270901
	c0.4302826,0.0526037,0.5073471,0.1591253,0.3108749,0.7690611c-0.1746445,0.5215616-0.9515991,2.6932907-1.3395462,3.7180033
	c-0.5636444-1.4973536-1.3022003-3.3879175-1.4973526-3.9786844c-0.1157303-0.3697701-0.09758-0.4428883,0.2735367-0.4904947
	l0.2901077-0.0449753v-0.2682772H88.3194199L88.3194199,10.7175856L88.3194199,10.7175856L88.3194199,10.7175856z"/>
<path fill-rule="evenodd" clip-rule="evenodd" fill="#231F20" d="M98.8182373,10.7175856v0.2682772
	c0.7177734,0.0578632,0.7961578,0.1296673,0.7961578,1.1596403v3.3545141c0,1.0326042-0.0783844,1.1044083-0.89505,1.1622715
	v0.2695923h4.5885925c0.0783768-0.2695923,0.2929993-1.2443647,0.3121948-1.5667906l-0.2735367-0.055234
	c-0.154129,0.4610682-0.3300858,0.7835274-0.485527,0.9671116c-0.1951599,0.2401352-0.6215057,0.2709084-1.1083527,0.2709084
	c-0.3697968,0-0.7190704-0.0089436-0.874527-0.1207256c-0.1746445-0.1244068-0.2143631-0.3916321-0.2143631-0.9437037v-1.5746803
	h0.7974701c0.8166656,0,0.8166656,0.039978,0.9337082,0.7964144h0.2901077v-2.0331192h-0.2901077
	c-0.1170425,0.7474937-0.1170425,0.805357-0.9337082,0.805357h-0.7974701v-2.0318031
	c0-0.3453407,0.0205154-0.3453407,0.3698196-0.3453407h0.4673615c0.5831146,0,0.8939972,0.0602303,1.0491791,0.2143583
	c0.1349258,0.1514654,0.2530212,0.4200373,0.331398,0.8771601l0.2903824-0.0191994
	c-0.0591888-0.5986586-0.0975876-1.3011436-0.1157227-1.4550085H98.8182373L98.8182373,10.7175856L98.8182373,10.7175856
	L98.8182373,10.7175856z"/>
<path fill-rule="evenodd" clip-rule="evenodd" fill="#231F20" d="M109.7037125,11.4264154
	c0-0.3108854,0.0191956-0.347971,0.4673767-0.347971c0.6023102,0,1.2624817,0.347971,1.2624817,1.337966
	c0,0.4600163-0.1144104,0.9234514-0.5047302,1.2290764c-0.2325058,0.1914759-0.5047302,0.2427645-0.8758469,0.2427645h-0.3492813
	V11.4264154L109.7037125,11.4264154L109.7037125,11.4264154L109.7037125,11.4264154z M107.8760071,10.7175856v0.2682772
	c0.719368,0.0578632,0.7782669,0.1296673,0.7782669,1.1596403v3.3545141c0,1.0326042-0.0588989,1.1044083-0.8153534,1.1622715
	v0.2695923h2.644371v-0.2695923c-0.7014618-0.0578632-0.7795792-0.1296673-0.7795792-1.1622715v-1.2843103h0.3119507
	c0.2722092,0,0.3879318,0.1002092,0.5457458,0.362174c0.251709,0.4984169,0.5612793,1.1096354,0.8721619,1.5528507
	c0.3711166,0.5315571,0.6820068,0.8011494,1.7106628,0.8834724l0.3889999,0.016571l0.0410461-0.2553902
	c-0.2735367-0.0591774-0.4300461-0.208046-0.6433563-0.4316101c-0.1746292-0.1991024-0.428978-0.5368166-0.7974625-1.0660067
	c-0.2914276-0.4276648-0.6601715-1.1017761-0.8143005-1.3690014c0.7756348-0.27985,1.2624817-0.8514166,1.2624817-1.6488514
	c0-0.5689049-0.2722244-0.9671125-0.6215134-1.2161894c-0.3892593-0.2401342-0.8758392-0.3261404-1.5565338-0.3261404H107.8760071
	L107.8760071,10.7175856L107.8760071,10.7175856L107.8760071,10.7175856z"/>
<path fill-rule="evenodd" clip-rule="evenodd" fill="#231F20" d="M121.3287888,12.1223574
	c-0.0962677-0.5328722-0.1528168-0.9502792-0.1938477-1.2829952c-0.1157227-0.0486584-0.2530212-0.0757484-0.4084625-0.1322975
	c-0.2530212-0.0936337-0.5817947-0.1320343-0.834816-0.1320343c-1.2651138,0-2.0215454,0.8140364-2.0215454,1.8221474
	c0,0.9426842,0.7950974,1.4424152,1.417923,1.7698717l0.3108826,0.1541271
	c0.7382889,0.3773975,0.9913101,0.7551212,0.9913101,1.2919378c0,0.5894213-0.3684845,1.0812616-0.9913101,1.0812616
	c-0.972374,0-1.4770813-1.0620928-1.651741-1.560215l-0.2914276,0.099947
	c0.0962677,0.5794258,0.2143631,1.2369671,0.2914276,1.4820995c0.0978394,0.0334015,0.2724838,0.1144123,0.5433884,0.2004185
	c0.2338257,0.0796928,0.5636444,0.1670151,0.9337082,0.1670151c1.2648468,0,2.1370163-0.806673,2.1370163-1.9494801
	c0-0.9942026-0.6793747-1.502614-1.3987274-1.8313847l-0.2517014-0.1286154
	c-0.7204056-0.3287706-1.1096725-0.680687-1.1096725-1.2162209c0-0.5391846,0.3495483-1.0067959,0.9531708-1.0067959
	c0.7987823,0,1.1094055,0.6780252,1.2648544,1.2290773L121.3287888,12.1223574L121.3287888,12.1223574L121.3287888,12.1223574
	L121.3287888,12.1223574z"/>
<path fill-rule="evenodd" clip-rule="evenodd" fill="#231F20" d="M126.0354691,10.7175856v0.2682772
	c0.7167206,0.0578632,0.7950974,0.1296673,0.7950974,1.1596403v3.3545141c0,1.0326042-0.0783768,1.1044083-0.7950974,1.1622715
	v0.2695923h2.6417465v-0.2695923c-0.7190933-0.0578632-0.7974625-0.1296673-0.7974625-1.1622715V12.145503
	c0-1.029973,0.0783691-1.1017771,0.7974625-1.1596403v-0.2682772H126.0354691L126.0354691,10.7175856L126.0354691,10.7175856
	L126.0354691,10.7175856z"/>
<path fill-rule="evenodd" clip-rule="evenodd" fill="#231F20" d="M133.3249817,12.2225666
	c0.09758-0.4521255,0.2133026-0.7012339,0.3313904-0.834815c0.154129-0.1770096,0.3866425-0.2874765,1.2033081-0.2874765h0.3108978
	v4.3997421c0,1.0326042-0.0578613,1.1044083-0.8940125,1.1622715v0.2695923h2.8960876v-0.2695923
	c-0.8553162-0.0578632-0.9310913-0.1296673-0.9310913-1.1622715V11.100275h0.4868469
	c0.5818024,0,0.8719025,0.0602303,1.0273438,0.237504c0.1372986,0.1501818,0.2530212,0.3968916,0.3492889,0.8847876
	l0.2927551-0.0142031c-0.0576172-0.6046753-0.096283-1.3369131-0.1154785-1.7361727h-0.155426
	c-0.136261,0.1875305-0.1964874,0.2453947-0.4481964,0.2453947h-3.8681946c-0.2722168,0-0.3697968-0.0207787-0.4855194-0.2453947
	h-0.1759644c-0.0191956,0.4944715-0.0783844,1.1314974-0.1154633,1.7503757H133.3249817L133.3249817,12.2225666
	L133.3249817,12.2225666L133.3249817,12.2225666z"/>
<path fill-rule="evenodd" clip-rule="evenodd" fill="#231F20" d="M142.3843231,10.7175856v0.2682772
	c0.4839478,0.0578632,0.5444489,0.0833759,0.9321289,0.7961512c0.6422882,1.0944128,0.9736938,1.695405,1.284317,2.2719383
	c0.1349182,0.2672243,0.1157227,0.313221,0.1157227,0.5239286v0.9221363c0,1.0326042-0.0783844,1.1044083-0.874527,1.1622715
	v0.2695923h2.8574066v-0.2695923c-0.8553314-0.0578632-0.914505-0.1296673-0.914505-1.1622715v-1.0247126
	c0-0.3238058,0.0218353-0.4008369,0.1002045-0.5665379c0.4828949-0.9502792,0.8334961-1.5565329,1.2019958-2.1267529
	c0.3892517-0.6215086,0.4676361-0.7382879,1.0312805-0.7961512v-0.2682772h-2.118866v0.2682772l0.3684845,0.0334024
	c0.3506012,0.0462914,0.40979,0.1412401,0.254364,0.5020676c-0.2927551,0.6512613-0.8156281,1.6786041-1.1083679,2.1833334
	c-0.3711243-0.6280842-0.9915771-1.7774668-1.2059326-2.2385674c-0.155426-0.3055935-0.1154633-0.3876543,0.118103-0.4223728
	l0.3866425-0.0578632v-0.2682772H142.3843231L142.3843231,10.7175856L142.3843231,10.7175856L142.3843231,10.7175856z"/>
<polygon fill-rule="evenodd" clip-rule="evenodd" fill="#231F20" points="60.9877625,18.9752254 60.9877625,19.3142853 
	149.4797211,19.3142853 149.4797211,18.9752254 60.9877625,18.9752254 60.9877625,18.9752254 "/>
<polygon fill-rule="evenodd" clip-rule="evenodd" fill="#2D458F" points="50.7866058,58.5396881 50.7866058,49.8735275 
	50.3892975,50.0693817 43.7383347,53.4735565 43.7383347,53.9720345 43.7383347,62.7555275 17.6975651,62.7555275 
	17.6975651,54.1327095 17.6975651,53.9119034 10.6320381,50.3142052 10.6320381,50.7683792 10.6320381,58.9836578 
	12.5607595,60.2224503 10.682168,62.7555275 10.682168,62.7555275 10.6320381,62.7555275 10.6320381,62.9126816 
	10.6320381,69.328125 10.6320381,69.8301468 50.7866058,69.8301468 50.7866058,69.328125 50.7866058,62.9126816 
	50.7866058,62.7555275 50.7343788,62.7555275 48.6666908,59.9104767 50.7866058,58.5396881 50.7866058,58.5396881 "/>
<path fill-rule="evenodd" clip-rule="evenodd" fill="#FFFFFF" d="M50.0626373,62.7555275
	c-0.9303207-1.2807617-5.0503044-6.928894-5.7903633-7.953434c0,1.3092346,0,7.3294907,0,7.953434H50.0626373L50.0626373,62.7555275
	L50.0626373,62.7555275z"/>
<path fill-rule="evenodd" clip-rule="evenodd" fill="#FFFFFF" d="M17.1454353,62.7555275c0-0.6125183,0-6.5098991,0-7.7929916
	c-0.7412224,0.993969-4.8420877,6.5292511-5.7733393,7.7929916H17.1454353L17.1454353,62.7555275L17.1454353,62.7555275z"/>
<path fill-rule="evenodd" clip-rule="evenodd" fill="#FFFFFF" d="M50.2344894,63.3076591c0,0.4873085,0,5.4818611,0,5.9635963
	c-0.5169334,0-38.5354996,0-39.0696754,0c0-0.4817352,0-5.4762878,0-5.9635963
	C11.6989899,63.3076591,49.717556,63.3076591,50.2344894,63.3076591L50.2344894,63.3076591L50.2344894,63.3076591z"/>
<path fill-rule="evenodd" clip-rule="evenodd" fill="#2D458F" d="M16.490715,65.3559952
	c-0.1911926-0.1093597-0.396143-0.172081-0.6022587-0.172081c-0.5190201,0-0.8459139,0.2618484-0.8459139,0.6591568
	c0,0.6593781,1.1886625,0.7230377,1.1886625,1.2261963c0,0.1354675-0.1366329,0.3040466-0.4474392,0.3040466
	c-0.2571783,0-0.516921-0.125206-0.7239695-0.3586044v0.4518738c0.2424889,0.1468887,0.4826469,0.2254639,0.7764311,0.2254639
	c0.4301853,0,0.7752666-0.2811966,0.7752666-0.6579819c0-0.783432-1.1898298-0.7752686-1.1898298-1.2432251
	c0-0.1662445,0.1732407-0.2982407,0.4315844-0.2982407c0.1888618,0,0.4131641,0.0681076,0.6374664,0.2628021V65.3559952
	L16.490715,65.3559952L16.490715,65.3559952L16.490715,65.3559952z"/>
<path fill-rule="evenodd" clip-rule="evenodd" fill="#2D458F" d="M18.7302418,65.201149h-0.2755985l-1.1714077,2.4568558h0.3973083
	l0.3427486-0.7183762h1.1737423l0.3618679,0.7183762h0.3952103L18.7302418,65.201149L18.7302418,65.201149L18.7302418,65.201149
	L18.7302418,65.201149z M18.5924435,65.7407074l0.4315834,0.8869553H18.180212L18.5924435,65.7407074L18.5924435,65.7407074
	L18.5924435,65.7407074L18.5924435,65.7407074z"/>
<path fill-rule="evenodd" clip-rule="evenodd" fill="#2D458F" d="M20.7988605,65.2158585v2.4421463h0.3791237v-1.0543594h0.4131641
	c0.6388645,0,0.9312515-0.2958832,0.9312515-0.6820297c0-0.3823853-0.2765312-0.7057571-0.8776245-0.7057571H20.7988605
	L20.7988605,65.2158585L20.7988605,65.2158585L20.7988605,65.2158585z M21.1779842,65.5392303h0.4667912
	c0.3609352,0,0.4633064,0.1856232,0.4633064,0.3721542c0,0.2392273-0.1879406,0.3849487-0.4803143,0.3849487h-0.4497833V65.5392303
	L21.1779842,65.5392303L21.1779842,65.5392303L21.1779842,65.5392303z"/>
<polygon fill-rule="evenodd" clip-rule="evenodd" fill="#2D458F" points="24.9692078,65.2158585 23.4172783,65.2158585 
	23.4172783,67.6580048 25.0055809,67.6580048 25.0055809,67.3504639 23.7975655,67.3504639 23.7975655,66.5854568 
	24.9167461,66.5854568 24.9167461,66.2678909 23.7975655,66.2678909 23.7975655,65.5392303 24.9692078,65.5392303 
	24.9692078,65.2158585 24.9692078,65.2158585 24.9692078,65.2158585 "/>
<path fill-rule="evenodd" clip-rule="evenodd" fill="#2D458F" d="M25.9699421,65.2158585v2.4421463h0.396143v-1.0543594h0.1718407
	c0.1902618,0,0.3621025,0.0489655,0.7242031,0.5567932l0.3618679,0.4975662h0.4656258
	c-0.1900272-0.2345581-0.2583427-0.3075409-0.3618679-0.4840469c-0.2254677-0.3073044-0.3621006-0.529274-0.6204453-0.6715088
	c0.2923851-0.1070175,0.463295-0.3098679,0.463295-0.6022568c0-0.4189911-0.3427505-0.6843338-0.9107342-0.6843338H25.9699421
	L25.9699421,65.2158585L25.9699421,65.2158585L25.9699421,65.2158585z M26.3660851,65.5231705h0.2583561
	c0.3779449,0,0.5350971,0.1345367,0.5350971,0.3656006c0,0.1979523-0.1217117,0.3926468-0.5350971,0.3926468h-0.2583561V65.5231705
	L26.3660851,65.5231705L26.3660851,65.5231705L26.3660851,65.5231705z"/>
<polygon fill-rule="evenodd" clip-rule="evenodd" fill="#2D458F" points="30.5009918,65.2158585 28.9516258,65.2158585 
	28.9516258,67.6580048 30.537365,67.6580048 30.537365,67.3504639 29.3466034,67.3504639 29.3466034,66.5854568 
	30.4681149,66.5854568 30.4681149,66.2678909 29.3466034,66.2678909 29.3466034,65.5392303 30.5009918,65.5392303 
	30.5009918,65.2158585 30.5009918,65.2158585 30.5009918,65.2158585 "/>
<path fill-rule="evenodd" clip-rule="evenodd" fill="#2D458F" d="M35.6377983,65.201149h-0.2753677l-1.1716423,2.4568558h0.3963776
	l0.3448601-0.7183762h1.1704788l0.3618546,0.7183762h0.4145737L35.6377983,65.201149L35.6377983,65.201149L35.6377983,65.201149
	L35.6377983,65.201149z M35.5002327,65.7407074l0.4474373,0.8869553h-0.860836L35.5002327,65.7407074L35.5002327,65.7407074
	L35.5002327,65.7407074L35.5002327,65.7407074z"/>
<path fill-rule="evenodd" clip-rule="evenodd" fill="#2D458F" d="M39.9459419,65.2158585h-0.3961411v1.4197311
	c0,0.2310638-0.0342751,0.4087296-0.1720734,0.5383682c-0.1217117,0.1139908-0.3460159,0.1981888-0.6544762,0.1981888
	c-0.2254829,0-0.4143448-0.0727463-0.569397-0.2117081c-0.1375656-0.1105194-0.1730042-0.2289658-0.1730042-0.5020294v-1.4425507
	h-0.3949776v1.5290833c0,0.6544876,0.5679817,0.9471054,1.1373787,0.9471054c0.8265495,0,1.2226906-0.3926468,1.2226906-0.9881439
	V65.2158585L39.9459419,65.2158585L39.9459419,65.2158585L39.9459419,65.2158585z"/>
<path fill-rule="evenodd" clip-rule="evenodd" fill="#2D458F" d="M41.0320129,67.6580048h1.0690536
	c0.9118996,0,1.4640274-0.5966644,1.4640274-1.2250366c0-0.5738144-0.4472084-1.2171097-1.4640274-1.2171097h-1.0690536V67.6580048
	L41.0320129,67.6580048L41.0320129,67.6580048L41.0320129,67.6580048z M41.4281578,65.5392303h0.6034241
	c0.7743454,0,1.1191826,0.4052658,1.1191826,0.8937378c0,0.3119736-0.204937,0.9174957-1.0849075,0.9174957h-0.6376991V65.5392303
	L41.4281578,65.5392303L41.4281578,65.5392303L41.4281578,65.5392303z"/>
<polygon fill-rule="evenodd" clip-rule="evenodd" fill="#2D458F" points="46.1506348,65.2158585 44.6001015,65.2158585 
	44.6001015,67.6580048 46.1849098,67.6580048 46.1849098,67.3504639 44.995079,67.3504639 44.995079,66.5854568 
	46.1165924,66.5854568 46.1165924,66.2678909 44.995079,66.2678909 44.995079,65.5392303 46.1506348,65.5392303 
	46.1506348,65.2158585 46.1506348,65.2158585 46.1506348,65.2158585 "/>
<path fill-rule="evenodd" clip-rule="evenodd" fill="#231F20" d="M60.3659706,54.9111748
	c-0.1984024,0-0.3044891-0.0130463-0.3752823-0.1935654h-0.0896683c-0.089653,0.3965607-0.213623,0.8967934-0.3576546,1.3675423
	h0.1239738c0.1805153-0.3574142,0.323349-0.5923042,0.466156-0.7351227
	c0.1425781-0.1474113,0.3750534-0.2643738,1.0536308-0.2643738h0.3397713l-0.6974258,3.7500496
	c-0.1604614,0.8743172-0.2322197,0.9299011-0.9473,1.0195541l-0.0178833,0.1002617h2.1795158l0.0364914-0.1002617
	c-0.750351-0.089653-0.8047218-0.145237-0.6442604-1.0195541l0.6986313-3.7500496h0.5178719
	c0.4637451,0,0.6950111,0.0686302,0.8025475,0.2302971c0.124939,0.161644,0.1793098,0.3798866,0.2133865,0.7691994
	l0.1087456-0.0270653c0.0519562-0.4436836,0.1060867-1.0065079,0.1781006-1.340477h-0.0884361
	c-0.1440392,0.149826-0.2148438,0.1935654-0.4296799,0.1935654H60.3659706L60.3659706,54.9111748L60.3659706,54.9111748
	L60.3659706,54.9111748z"/>
<path fill-rule="evenodd" clip-rule="evenodd" fill="#231F20" d="M65.7583313,59.05513
	c-0.4813843,0.4378853-0.8554688,0.5794945-1.1776047,0.5794945c-0.4825897,0-0.5710373-0.5488052-0.5710373-0.9475403
	c0-0.0413513,0-0.1251793,0.0164337-0.2266769c0.7682343-0.213623,2.0011826-0.6783333,2.0011826-1.3815575
	c0-0.3233376-0.2324829-0.5865059-0.6065598-0.5865059c-0.3042603,0-0.78685,0.2206345-1.1077728,0.4765511
	c-0.5536385,0.4342613-0.8934097,1.2213402-0.8934097,1.9470406c0,0.916851,0.5004845,1.1328926,0.804718,1.1328926
	c0.2667923,0,0.8566818-0.0933075,1.6249084-0.9216843L65.7583313,59.05513L65.7583313,59.05513L65.7583313,59.05513
	L65.7583313,59.05513z M64.0638199,58.2929115c0.1239777-0.9380875,0.5345535-1.3191833,0.6785812-1.3994141
	c0.0884476-0.063797,0.2312775-0.1167221,0.3562012-0.1167221c0.1959839,0,0.3929367,0.1355705,0.3929367,0.4352264
	C65.491539,57.6085625,65.1517715,57.9720192,64.0638199,58.2929115L64.0638199,58.2929115L64.0638199,58.2929115
	L64.0638199,58.2929115z"/>
<path fill-rule="evenodd" clip-rule="evenodd" fill="#231F20" d="M70.7968979,54.9111748h-1.7322006v0.1121063
	c0.4813843,0.1036949,0.5002289,0.1061134,0.6063156,0.8719254l0.5181198,4.1746445h0.1261444l1.9105606-3.85952h0.0364761
	l0.6950073,3.85952h0.1072998c1.0183487-2.1911125,1.8042145-3.9881096,2.000206-4.3208466
	c0.3409729-0.5746613,0.3409729-0.6348343,0.8578796-0.7257233v-0.1121063h-1.5717392v0.1121063l0.2866211,0.052948
	c0.2124023,0.0507469,0.2856216,0.1346054,0.1780853,0.4685745c-0.214592,0.6655273-0.9472961,2.3552017-1.4465637,3.4619942
	h-0.0188522l-0.7138596-3.9634323h-0.0720139l-1.9103012,3.9515915h-0.0176468l-0.4120255-3.3711319
	c-0.0717697-0.3941422-0.0352783-0.4813805,0.197197-0.5287476l0.3574066-0.0717964L70.7968979,54.9111748L70.7968979,54.9111748
	L70.7968979,54.9111748L70.7968979,54.9111748z"/>
<path fill-rule="evenodd" clip-rule="evenodd" fill="#231F20" d="M76.4582214,59.8397942
	c0.0367355-0.4282188,0.2324753-1.2778893,0.3032837-1.5623207c0.2324753-0.4175835,1.0739288-1.3213844,1.4656601-1.3213844
	c0.2324677,0,0.214592,0.2464905,0.1261444,0.6348343l-0.4294281,1.8513412
	c-0.0884476,0.4129944-0.0367355,0.6065636,0.124939,0.6065636c0.12397,0,0.7505875-0.3470497,1.125885-0.7447891
	l-0.0708084-0.1024895c-0.2348785,0.1817513-0.5193253,0.3422127-0.5901184,0.3422127c-0.0720215,0-0.0541458-0.0850639,0-0.3588638
	l0.4284515-1.8726082c0.1616669-0.7372971-0.1251831-0.8199463-0.2336884-0.8199463
	c-0.0884323,0-0.1947632,0.0318985-0.3209229,0.0847969c-0.4296494,0.1996346-0.9475403,0.5664749-1.5364456,1.3015976H76.833519
	l0.6442642-3.1045837c0.0343094-0.1911507,0.0164261-0.3267212-0.0720139-0.3267212
	c-0.0541382,0-0.5898895,0.1899452-1.1964493,0.3209229v0.0860291h0.446106c0.2324677,0,0.2501068,0.0437431,0.178093,0.4448929
	l-0.7138596,3.5671158c-0.0707932,0.3871384-0.1428146,0.7894707-0.2513199,1.1824341L76.4582214,59.8397942L76.4582214,59.8397942
	L76.4582214,59.8397942L76.4582214,59.8397942z"/>
<path fill-rule="evenodd" clip-rule="evenodd" fill="#231F20" d="M83.1217041,59.1848984
	c-0.2336807,0.1735115-0.5181122,0.3588638-0.5889206,0.3588638c-0.0543747,0-0.0543747-0.0850639-0.0176392-0.3588638
	c0.1404037-0.8919868,0.338562-1.7674866,0.517868-2.5545921l-0.0364761-0.0352554
	c-0.0896683,0-0.1969604-0.0200577-0.3032913-0.037941c-0.1440277-0.0328674-0.2689667-0.0647659-0.3929367-0.0647659
	c-0.4838028,0-1.0903625,0.3115005-1.4832993,0.6631126c-0.5002289,0.4330482-0.8576431,1.2602463-0.8576431,2.0719757
	c0,0.6643181,0.2854004,0.8213959,0.4637451,0.8213959c0.1085129,0,0.5014343-0.2597847,0.6263733-0.3740883
	c0.3752975-0.31633,0.7138596-0.6797829,1.0360031-1.1128349h0.017868l-0.1971893,1.0301895
	c-0.0720062,0.3668365,0.0708008,0.4567337,0.1793213,0.4567337c0.0886765,0,0.7140884-0.3552399,1.0879288-0.7648468
	L83.1217041,59.1848984L83.1217041,59.1848984L83.1217041,59.1848984L83.1217041,59.1848984z M81.9250107,56.8038445
	c0.1783447,0,0.3752975,0.0519562,0.4816284,0.1060867c-0.0178833,0.2926483-0.197197,1.095192-0.3032837,1.293354
	c-0.1263885,0.2866058-0.41082,0.6041451-0.5889206,0.8035126c-0.3044891,0.3291397-0.6075287,0.561615-0.733902,0.561615
	c-0.1428299,0-0.1947861-0.2324753-0.1947861-0.5367241c0-0.2762146,0.0519562-0.8508797,0.2491455-1.3003616
	c0.2324753-0.514492,0.4470673-0.7281151,0.6442642-0.8378296C81.5852585,56.8391266,81.7633438,56.8038445,81.9250107,56.8038445
	L81.9250107,56.8038445L81.9250107,56.8038445L81.9250107,56.8038445z"/>
<path fill-rule="evenodd" clip-rule="evenodd" fill="#231F20" d="M84.7110901,59.8397942
	c0.0176392-0.296032,0.1261444-0.7846642,0.2854004-1.5386391c0.089653-0.3020706,0.2148285-0.5840874,0.4296646-0.8706932
	c0.1957474-0.2868462,0.3209229-0.3315544,0.3917313-0.3315544c0.0732193,0,0.1781006,0.0316315,0.2501221,0.0918312
	c0.0543671,0.0391464,0.1251678,0.0391464,0.1969452,0c0.0720139-0.0553665,0.1428146-0.1404037,0.1771317-0.2346497
	c0.0553436-0.0790253,0.0553436-0.1911545,0-0.2607498c-0.034317-0.1181984-0.1771317-0.2029953-0.3375931-0.2029953
	c-0.1793137,0-0.6606979,0.4649506-1.0724792,1.3204231h-0.0176315l0.1261368-0.6101875
	c0.0708008-0.437645,0.0884476-0.7102356-0.0720139-0.7102356c-0.1969528,0-0.6783371,0.3704643-1.0724792,0.8035164
	l0.0708008,0.1145439c0.1805191-0.1701279,0.4838028-0.3907623,0.5722504-0.3907623
	c0.0720139,0,0.0541306,0.1394386-0.034317,0.5840874l-0.2513199,1.2201347
	c-0.0720215,0.4084015-0.1604614,0.825985-0.2665558,1.2249641L84.7110901,59.8397942L84.7110901,59.8397942L84.7110901,59.8397942
	L84.7110901,59.8397942z"/>
<path fill-rule="evenodd" clip-rule="evenodd" fill="#231F20" d="M89.1759644,59.05513
	c-0.5002289,0.4378853-0.874321,0.5794945-1.196434,0.5794945c-0.4637604,0-0.5522003-0.5488052-0.5522003-0.9475403
	c0-0.0413513,0-0.1251793,0-0.2266769c0.7670212-0.213623,2.0178375-0.6783333,2.0178375-1.3815575
	c0-0.3233376-0.250351-0.5865059-0.6266174-0.5865059c-0.2856216,0-0.7846603,0.2206345-1.1067886,0.4765511
	c-0.5533981,0.4342613-0.874321,1.2213402-0.874321,1.9470406c0,0.916851,0.4813843,1.1328926,0.7846603,1.1328926
	c0.2689667,0,0.8588562-0.0933075,1.6258774-0.9216843L89.1759644,59.05513L89.1759644,59.05513L89.1759644,59.05513
	L89.1759644,59.05513z M87.4616394,58.2929115c0.1425781-0.9380875,0.5355148-1.3191833,0.6783371-1.3994141
	c0.1063309-0.063797,0.2324753-0.1167221,0.3576508-0.1167221c0.214592,0,0.392952,0.1355705,0.392952,0.4352264
	C88.8905792,57.6085625,88.5517578,57.9720192,87.4616394,58.2929115L87.4616394,58.2929115L87.4616394,58.2929115
	L87.4616394,58.2929115z"/>
<path fill-rule="evenodd" clip-rule="evenodd" fill="#231F20" d="M94.1956863,54.9111748h-1.7157745v0.1121063
	c0.4661636,0.1036949,0.501442,0.1061134,0.5901337,0.8719254l0.5355148,4.1746445h0.1075363l1.9291534-3.85952h0.0176392
	l0.6974258,3.85952h0.1072998c1.0183487-2.1911125,1.803009-3.9881096,2.000206-4.3208466
	c0.3385696-0.5746613,0.3385696-0.6348343,0.8566742-0.7257233v-0.1121063h-1.5717316v0.1121063l0.2865906,0.052948
	c0.2312698,0.0507469,0.2856445,0.1346054,0.1771393,0.4685745c-0.1947784,0.6655273-0.9451218,2.3552017-1.4456024,3.4619942
	h-0.0176392l-0.715065-3.9634323h-0.0708084l-1.8938751,3.9515915h-0.0164261l-0.4296722-3.3711319
	c-0.0541306-0.3941422-0.0364914-0.4813805,0.2148361-0.5287476l0.338562-0.0717964L94.1956863,54.9111748L94.1956863,54.9111748
	L94.1956863,54.9111748L94.1956863,54.9111748z"/>
<path fill-rule="evenodd" clip-rule="evenodd" fill="#231F20" d="M101.6791229,59.1848984
	c-0.2136383,0.1735115-0.5004883,0.3588638-0.5712891,0.3588638c-0.0720139,0-0.0529251-0.0850639-0.0176468-0.3588638
	c0.1428223-0.8919868,0.3409805-1.7674866,0.5002365-2.5545921l-0.0176315-0.0352554
	c-0.070816,0-0.2136383-0.0200577-0.2856522-0.037941c-0.1604614-0.0328674-0.3030396-0.0647659-0.4117813-0.0647659
	c-0.4813843,0-1.0700607,0.3115005-1.499733,0.6631126c-0.4813843,0.4330482-0.8211365,1.2602463-0.8211365,2.0719757
	c0,0.6643181,0.2489014,0.8213959,0.4281998,0.8213959c0.1251907,0,0.5193253-0.2597847,0.6420898-0.3740883
	c0.3750534-0.31633,0.7160339-0.6797829,1.0359879-1.1128349h0.0200577l-0.1984024,1.0301895
	c-0.0708084,0.3668365,0.0720139,0.4567337,0.1616669,0.4567337c0.1075363,0,0.715065-0.3552399,1.1067963-0.7648468
	L101.6791229,59.1848984L101.6791229,59.1848984L101.6791229,59.1848984L101.6791229,59.1848984z M100.4824219,56.8038445
	c0.2148361,0,0.3929367,0.0519562,0.5016785,0.1060867c-0.0190887,0.2926483-0.1971893,1.095192-0.2868423,1.293354
	c-0.1428223,0.2866058-0.4117889,0.6041451-0.6065674,0.8035126c-0.304245,0.3291397-0.6063156,0.561615-0.7327042,0.561615
	c-0.1428223,0-0.1969376-0.2324753-0.1969376-0.5367241c0-0.2762146,0.0541153-0.8508797,0.2513199-1.3003616
	c0.2324677-0.514492,0.4446564-0.7281151,0.6418304-0.8378296
	C100.1627045,56.8391266,100.3231659,56.8038445,100.4824219,56.8038445L100.4824219,56.8038445L100.4824219,56.8038445
	L100.4824219,56.8038445z"/>
<path fill-rule="evenodd" clip-rule="evenodd" fill="#231F20" d="M102.87677,59.8397942
	c0.0364914-0.4282188,0.2312622-1.2778893,0.2854004-1.4678307c0.2324753-0.4461021,1.1435242-1.4158745,1.5176086-1.4265099
	c0.214592,0,0.1805191,0.2571259,0.0908661,0.6454697l-0.4485168,1.8619499
	c-0.0884476,0.4081841-0.0519562,0.5959549,0.1261444,0.5959549c0.1087418,0,0.715065-0.3470497,1.0891495-0.7648468
	l-0.0708008-0.0990829c-0.1969528,0.1817284-0.4838028,0.3588638-0.5722504,0.3588638
	c-0.0531616,0-0.0340729-0.0850639,0.0176392-0.3588638c0.1428223-0.6454926,0.3032837-1.2730522,0.446106-1.8300743
	c0.1972046-0.7798309-0.069603-0.8624802-0.1947784-0.8624802c-0.0717697,0-0.1969528,0.0318985-0.3574142,0.0942497
	c-0.338562,0.1604576-0.8931656,0.5487785-1.5374298,1.3523178h-0.0343094l0.1971893-0.7363319
	c0.0884476-0.437645,0.106102-0.7102356-0.1075363-0.7102356c-0.1616669,0-0.6962204,0.3704643-1.1080017,0.810524
	l0.0708008,0.1075363c0.1793137-0.1935692,0.4838028-0.3907623,0.5722504-0.3907623
	c0.0720291,0,0.0543747,0.1394386-0.0364914,0.4804192l-0.2667923,1.2742615
	c-0.1261444,0.5096588-0.1969528,0.856678-0.2866058,1.2745056L102.87677,59.8397942L102.87677,59.8397942L102.87677,59.8397942
	L102.87677,59.8397942z"/>
<path fill-rule="evenodd" clip-rule="evenodd" fill="#231F20" d="M109.5199509,59.1848984
	c-0.2124176,0.1735115-0.4980621,0.3588638-0.570076,0.3588638c-0.0708008,0-0.0708008-0.0850639-0.0188446-0.3588638
	c0.1428299-0.8919868,0.3400116-1.7674866,0.5004883-2.5545921l-0.0166931-0.0352554
	c-0.0896378,0-0.2157974-0.0200577-0.3044891-0.037941c-0.1425781-0.0328674-0.2677536-0.0647659-0.3917084-0.0647659
	c-0.5002365,0-1.0913467,0.3115005-1.5031204,0.6631126c-0.4813919,0.4330482-0.8378372,1.2602463-0.8378372,2.0719757
	c0,0.6643181,0.2856369,0.8213959,0.4460983,0.8213959c0.1261444,0,0.501442-0.2597847,0.6263809-0.3740883
	c0.3917236-0.31633,0.7305298-0.6797829,1.0538712-1.1128349h0.0176392l-0.1981583,1.0301895
	c-0.0708084,0.3668365,0.0720139,0.4567337,0.1626358,0.4567337c0.0886841,0,0.7128906-0.3552399,1.1058273-0.7648468
	L109.5199509,59.1848984L109.5199509,59.1848984L109.5199509,59.1848984L109.5199509,59.1848984z M108.3235016,56.8038445
	c0.1981583,0,0.3951263,0.0519562,0.5014496,0.1060867c-0.0176544,0.2926483-0.1981583,1.095192-0.3032913,1.293354
	c-0.1261444,0.2866058-0.4117889,0.6041451-0.5898895,0.8035126c-0.3044891,0.3291397-0.6065598,0.561615-0.7329483,0.561615
	c-0.1437836,0-0.214592-0.2324753-0.214592-0.5367241c0-0.2762146,0.0708084-0.8508797,0.2689667-1.3003616
	c0.2136383-0.514492,0.4460983-0.7281151,0.6418457-0.8378296
	C108.0025787,56.8391266,108.1630402,56.8038445,108.3235016,56.8038445L108.3235016,56.8038445L108.3235016,56.8038445
	L108.3235016,56.8038445z"/>
<path fill-rule="evenodd" clip-rule="evenodd" fill="#231F20" d="M111.0938721,59.8397942
	c0.0178757-0.4282188,0.2324753-1.2778893,0.2844315-1.4678307c0.2312622-0.4461021,1.1447296-1.4158745,1.519783-1.4265099
	c0.2312698,0,0.1771393,0.2571259,0.0886917,0.6454697l-0.4296722,1.8619499
	c-0.1060867,0.4081841-0.0708008,0.5959549,0.1085052,0.5959549c0.1063309,0,0.7141037-0.3470497,1.0891647-0.7648468
	l-0.0720215-0.0990829c-0.1957474,0.1817284-0.4825974,0.3588638-0.5533981,0.3588638
	c-0.0541306,0-0.0541306-0.0850639,0.0178833-0.3588638c0.1249313-0.6454926,0.2677536-1.2730522,0.428215-1.8300743
	c0.1969528-0.7798309-0.0708084-0.8624802-0.1957397-0.8624802c-0.0720062,0-0.1959839,0.0318985-0.3588638,0.0942497
	c-0.3209229,0.1604576-0.8931656,0.5487785-1.53405,1.3523178h-0.0188446l0.1616669-0.7363319
	c0.1063309-0.437645,0.12397-0.7102356-0.0884323-0.7102356c-0.144043,0-0.6986465,0.3704643-1.108017,0.810524l0.0708084,0.1075363
	c0.1959839-0.1935692,0.4992676-0.3907623,0.5710373-0.3907623c0.0720139,0,0.0367279,0.1394386-0.0352859,0.4804192
	l-0.2679977,1.2742615c-0.1249313,0.5096588-0.1781006,0.856678-0.2865906,1.2745056L111.0938721,59.8397942L111.0938721,59.8397942
	L111.0938721,59.8397942L111.0938721,59.8397942z"/>
<path fill-rule="evenodd" clip-rule="evenodd" fill="#231F20" d="M116.2728577,57.5213242
	c0,0.7561493-0.4637604,1.2529984-0.821167,1.2529984c-0.2679977,0-0.500473-0.2631645-0.500473-0.8071365
	c0-0.3409805,0.0708008-0.6643181,0.213623-0.8682785c0.1604614-0.2561569,0.3233414-0.3518562,0.5558167-0.3518562
	C116.112381,56.7470512,116.2728577,57.0788498,116.2728577,57.5213242L116.2728577,57.5213242L116.2728577,57.5213242
	L116.2728577,57.5213242z M115.1307678,59.9874458c0.0884628,0.0340729,0.2665482,0.1498299,0.5178757,0.3032799
	c0.3576508,0.2276421,0.5889206,0.4434433,0.5889206,0.6865501c0,0.4117889-0.5169067,0.6053543-0.9463348,0.6053543
	c-0.4637451,0-0.9830551-0.1935654-0.9830551-0.6843758C114.3081741,60.5396347,114.5761642,60.2257195,115.1307678,59.9874458
	L115.1307678,59.9874458L115.1307678,59.9874458L115.1307678,59.9874458z M117.4692917,56.5300446
	c-0.1604614,0.0650063-0.3929367,0.1121292-0.9816132,0.1652946c-0.1428223-0.1300125-0.3209229-0.2029953-0.535759-0.2029953
	c-0.2312622,0-0.6785736,0.167469-1.0007019,0.4448662c-0.3750534,0.3149071-0.5710373,0.77285-0.5710373,1.1976852
	c0,0.4944344,0.2856522,0.8047218,0.7327194,0.9013863c-0.3574295,0.2476997-0.4659348,0.3375931-0.4659348,0.4330482
	c0,0.080204,0.1085052,0.248909,0.3409805,0.4093704c-0.8402405,0.4424744-1.2684631,0.7989197-1.2684631,1.1541595
	c0,0.5403481,0.6783371,0.7998886,1.2684631,0.7998886c0.5002365,0,1.7145691-0.3233643,1.7145691-1.0985794
	c0-0.2665482-0.2148361-0.5816689-0.7505951-0.9013824c-0.3233337-0.201786-0.7682266-0.4272537-0.7682266-0.6053543
	c0-0.0647659,0.0531616-0.1273804,0.1416092-0.1723022c0.466156-0.2158012,0.8035126-0.3504066,1.001915-0.5239143
	c0.214592-0.2206345,0.5002289-0.5640297,0.5002289-1.1138039c0-0.145237-0.0364914-0.2868729-0.0908585-0.4260406
	c0.0720139-0.0118446,0.1072922-0.0118446,0.1440277-0.0118446c0.179306-0.0234375,0.3917236-0.1403999,0.6430511-0.3574104
	L117.4692917,56.5300446L117.4692917,56.5300446L117.4692917,56.5300446L117.4692917,56.5300446z"/>
<path fill-rule="evenodd" clip-rule="evenodd" fill="#231F20" d="M120.8464661,59.1848984
	c-0.2336884,0.1735115-0.501442,0.3588638-0.5722504,0.3588638c-0.0708008,0-0.0708008-0.0850639-0.0176392-0.3588638
	c0.1413803-0.8919868,0.3209229-1.7674866,0.4990387-2.5545921l-0.0176544-0.0352554
	c-0.0884476,0-0.2136307-0.0200577-0.3032837-0.037941c-0.1428223-0.0328674-0.2856216-0.0647659-0.3929367-0.0647659
	c-0.4825897,0-1.0891495,0.3115005-1.4997177,0.6631126c-0.482605,0.4330482-0.8414612,1.2602463-0.8414612,2.0719757
	c0,0.6643181,0.2692032,0.8213959,0.4473038,0.8213959c0.1251831,0,0.5181198-0.2597847,0.625412-0.3740883
	c0.3762665-0.31633,0.7327118-0.6797829,1.0548401-1.1128349h0.0176392l-0.1981583,1.0301895
	c-0.0683899,0.3668365,0.0720139,0.4567337,0.1628799,0.4567337c0.0884476,0,0.7138519-0.3552399,1.1067886-0.7648468
	L120.8464661,59.1848984L120.8464661,59.1848984L120.8464661,59.1848984L120.8464661,59.1848984z M119.6475983,56.8038445
	c0.1981583,0,0.3941422,0.0519562,0.5014572,0.1060867c-0.0353012,0.2926483-0.2158203,1.095192-0.303299,1.293354
	c-0.1261444,0.2866058-0.4105759,0.6041451-0.5898895,0.8035126c-0.3032761,0.3291397-0.6077652,0.561615-0.7327042,0.561615
	c-0.1428223,0-0.213623-0.2324753-0.213623-0.5367241c0-0.2762146,0.0708008-0.8508797,0.2501144-1.3003616
	c0.2324753-0.514492,0.4637375-0.7281151,0.6606903-0.8378296
	C119.3278809,56.8391266,119.4871368,56.8038445,119.6475983,56.8038445L119.6475983,56.8038445L119.6475983,56.8038445
	L119.6475983,56.8038445z"/>
<path fill-rule="evenodd" clip-rule="evenodd" fill="#231F20" d="M125.6501465,56.4923439
	c-0.197197,0-0.5002365,0.0942497-0.8035202,0.2844315c-0.5181122,0.3221321-1.0891495,1.0359917-1.0891495,2.1239357
	c0,0.5415535,0.2501144,1.1481171,0.9286957,1.1481171c0.3397675,0,0.8211517-0.2196693,1.1444855-0.5156975
	c0.4801788-0.4649506,0.784668-1.2672577,0.784668-1.9600906C126.6153259,56.9372101,126.2944183,56.4923439,125.6501465,56.4923439
	L125.6501465,56.4923439L125.6501465,56.4923439L125.6501465,56.4923439z M126.0254364,57.6757469
	c0.0176544,1.0289764-0.500473,1.9552536-0.8213959,2.0767822c-0.0719986,0.0365143-0.1440277,0.0553665-0.2324753,0.0553665
	c-0.4458542,0-0.625412-0.4647102-0.625412-1.0949554c0-1.1681747,0.5546112-1.803009,0.8037567-1.9090958
	c0.0541306-0.0389099,0.1604614-0.0683899,0.2513275-0.0683899
	C125.7762909,56.7354546,126.0254364,57.0433273,126.0254364,57.6757469L126.0254364,57.6757469L126.0254364,57.6757469
	L126.0254364,57.6757469z"/>
<path fill-rule="evenodd" clip-rule="evenodd" fill="#231F20" d="M129.7411652,57.8787384
	c0,1.30616,0.821167,2.1911125,2.0707703,2.1911125c1.6449738,0,2.8754883-1.3827667,2.8754883-3.0547981
	c0-1.2955284-0.8187256-2.2160072-2.107254-2.2160072C130.9376221,54.7990456,129.7411652,56.2243195,129.7411652,57.8787384
	L129.7411652,57.8787384L129.7411652,57.8787384L129.7411652,57.8787384z M130.4361877,57.9258614
	c0-1.2696724,0.7326965-2.9605789,2.1096649-2.9605789c1.0879517,0,1.4289246,0.9971085,1.4289246,2.0260887
	c0,1.2471962-0.6962128,2.9052124-2.0731812,2.9052124C130.8656006,59.8965836,130.4361877,58.9748993,130.4361877,57.9258614
	L130.4361877,57.9258614L130.4361877,57.9258614L130.4361877,57.9258614z"/>
<path fill-rule="evenodd" clip-rule="evenodd" fill="#231F20" d="M136.2072296,56.9123459l-0.4838104,2.2725525
	c-0.1060944,0.5852966,0.0190887,0.8639297,0.1628723,0.8639297c0.3552399,0,1.0159302-0.6101875,1.2484131-0.9216843
	l-0.0884552-0.0908623c-0.1604614,0.1652679-0.5722351,0.5321312-0.7138519,0.5321312
	c-0.1072998,0-0.1072998-0.201786-0.0364838-0.5710411l0.4458466-2.0850258l0.8047333-0.0331306l0.2324677-0.1957436h-0.9816132
	l0.2489014-1.0113144l-0.0720062-0.0483322l-0.5534058,0.4695435l-0.142807,0.5901031h-0.5166779l-0.1983948,0.1556549
	l0.0190887,0.0732193H136.2072296L136.2072296,56.9123459L136.2072296,56.9123459L136.2072296,56.9123459z"/>
<path fill-rule="evenodd" clip-rule="evenodd" fill="#231F20" d="M141.1017609,59.1848984
	c-0.2145996,0.1735115-0.517868,0.3588638-0.5722504,0.3588638c-0.0720062,0-0.0720062-0.0850639-0.0176392-0.3588638
	c0.1428223-0.8919868,0.338562-1.7674866,0.5014496-2.5545921l-0.036499-0.0352554
	c-0.0720062,0-0.1983948-0.0200577-0.2868347-0.037941c-0.1604767-0.0328674-0.2677765-0.0647659-0.3929443-0.0647659
	c-0.5002289,0-1.0700684,0.3115005-1.4997406,0.6631126c-0.4837952,0.4330482-0.8399963,1.2602463-0.8399963,2.0719757
	c0,0.6643181,0.2677765,0.8213959,0.4458618,0.8213959c0.1264038,0,0.500473-0.2597847,0.6430511-0.3740883
	c0.3752899-0.31633,0.7150574-0.6797829,1.0362244-1.1128349h0.0176392l-0.1947784,1.0301895
	c-0.0720062,0.3668365,0.070816,0.4567337,0.1604614,0.4567337c0.0884552,0,0.7126617-0.3552399,1.1080017-0.7648468
	L141.1017609,59.1848984L141.1017609,59.1848984L141.1017609,59.1848984L141.1017609,59.1848984z M139.905304,56.8038445
	c0.1947784,0,0.3917389,0.0519562,0.4992676,0.1060867c-0.0178833,0.2926483-0.1959839,1.095192-0.3044891,1.293354
	c-0.1239624,0.2866058-0.4096069,0.6041451-0.5901184,0.8035126c-0.3030396,0.3291397-0.6063232,0.561615-0.7303009,0.561615
	c-0.1428223,0-0.2148285-0.2324753-0.2148285-0.5367241c0-0.2762146,0.0720062-0.8508797,0.2491455-1.3003616
	c0.2322388-0.514492,0.463501-0.7281151,0.661911-0.8378296C139.5819702,56.8391266,139.7424316,56.8038445,139.905304,56.8038445
	L139.905304,56.8038445L139.905304,56.8038445L139.905304,56.8038445z"/>
<path fill-rule="evenodd" clip-rule="evenodd" fill="#231F20" d="M143.9407654,57.5213242
	c0,0.7561493-0.4458618,1.2529984-0.821167,1.2529984c-0.2856293,0-0.5002289-0.2631645-0.5002289-0.8071365
	c0-0.3409805,0.070816-0.6643181,0.2145996-0.8682785c0.1428223-0.2561569,0.3209381-0.3518562,0.5521851-0.3518562
	C143.780304,56.7470512,143.9407654,57.0788498,143.9407654,57.5213242L143.9407654,57.5213242L143.9407654,57.5213242
	L143.9407654,57.5213242z M142.7986908,59.9874458c0.0884399,0.0340729,0.267746,0.1498299,0.517868,0.3032799
	c0.3564453,0.2276421,0.5877075,0.4434433,0.5877075,0.6865501c0,0.4117889-0.5181122,0.6053543-0.927475,0.6053543
	c-0.4825897,0-0.9994965-0.1935654-0.9994965-0.6843758C141.9772949,60.5396347,142.2440796,60.2257195,142.7986908,59.9874458
	L142.7986908,59.9874458L142.7986908,59.9874458L142.7986908,59.9874458z M145.1384125,56.5300446
	c-0.1616669,0.0650063-0.3929291,0.1121292-0.9828186,0.1652946c-0.142807-0.1300125-0.3221283-0.2029953-0.5357513-0.2029953
	c-0.2501221,0-0.6795502,0.167469-1.000473,0.4448662c-0.3752899,0.3149071-0.5724792,0.77285-0.5724792,1.1976852
	c0,0.4944344,0.28685,0.8047218,0.7518005,0.9013863c-0.3765106,0.2476997-0.4838104,0.3375931-0.4838104,0.4330482
	c0,0.080204,0.1072998,0.248909,0.3586273,0.4093704c-0.8588562,0.4424744-1.287323,0.7989197-1.287323,1.1541595
	c0,0.5403481,0.6797943,0.7998886,1.2696838,0.7998886c0.4813843,0,1.732193-0.3233643,1.732193-1.0985794
	c0-0.2665482-0.2324677-0.5816689-0.768219-0.9013824c-0.3397827-0.201786-0.7691956-0.4272537-0.7691956-0.6053543
	c0-0.0647659,0.0553436-0.1273804,0.1437836-0.1723022c0.4637451-0.2158012,0.8037567-0.3504066,1.0007019-0.5239143
	c0.2124176-0.2206345,0.4990234-0.5640297,0.4990234-1.1138039c0-0.145237-0.0352783-0.2868729-0.0884399-0.4260406
	c0.0708008-0.0118446,0.1063232-0.0118446,0.1251678-0.0118446c0.195755-0.0234375,0.4093781-0.1403999,0.661911-0.3574104
	L145.1384125,56.5300446L145.1384125,56.5300446L145.1384125,56.5300446L145.1384125,56.5300446z"/>
<path fill-rule="evenodd" clip-rule="evenodd" fill="#231F20" d="M147.2824249,56.4923439
	c-0.1981659,0-0.5014648,0.0942497-0.804718,0.2844315c-0.5355377,0.3221321-1.108017,1.0359917-1.108017,2.1239357
	c0,0.5415535,0.250351,1.1481171,0.9475403,1.1481171c0.3209229,0,0.804718-0.2196693,1.1246796-0.5156975
	c0.5014343-0.4649506,0.8047333-1.2672577,0.8047333-1.9600906
	C148.2466431,56.9372101,147.9066162,56.4923439,147.2824249,56.4923439L147.2824249,56.4923439L147.2824249,56.4923439
	L147.2824249,56.4923439z M147.6564941,57.6757469c0.0178833,1.0289764-0.517868,1.9552536-0.8211365,2.0767822
	c-0.0720367,0.0365143-0.1604767,0.0553665-0.2513275,0.0553665c-0.4473267,0-0.6065674-0.4647102-0.6065674-1.0949554
	c0-1.1681747,0.5345459-1.803009,0.7858582-1.9090958c0.0720367-0.0389099,0.1604614-0.0683899,0.2501221-0.0683899
	C147.4051666,56.7354546,147.6564941,57.0433273,147.6564941,57.6757469L147.6564941,57.6757469L147.6564941,57.6757469
	L147.6564941,57.6757469z"/>
<polygon fill-rule="evenodd" clip-rule="evenodd" fill="#231F20" points="99.5020142,55.366703 99.5020142,55.7490044 
	101.6435852,55.7490044 101.6435852,55.366703 99.5020142,55.366703 99.5020142,55.366703 "/>
<polygon fill-rule="evenodd" clip-rule="evenodd" fill="#231F20" points="138.8139801,55.366703 138.8139801,55.7490044 
	140.9579773,55.7490044 140.9579773,55.366703 138.8139801,55.366703 138.8139801,55.366703 "/>
<path fill-rule="evenodd" clip-rule="evenodd" fill="#FFFFFF" d="M48.3400307,59.4630127
	c0.9995689-0.646534,1.8091087-1.1658134,1.8944588-1.2203484c0-0.2767639,0-6.6898994,0-7.4707603
	c-0.6717529,0.342514-5.6868362,2.9031067-5.9622154,3.0374069c0,0.011425,0,0.0352097,0,0.0683174L48.3400307,59.4630127
	L48.3400307,59.4630127L48.3400307,59.4630127z"/>
<path fill-rule="evenodd" clip-rule="evenodd" fill="#FFFFFF" d="M17.0428448,54.1975288
	c-0.8116398-0.4075699-5.2391644-2.6629524-5.8780298-2.9872818c0,0.7831955,0,7.1951675,0,7.4740028
	c0.1037569,0.0489655,0.8095407,0.5134506,1.7237711,1.09869L17.0428448,54.1975288L17.0428448,54.1975288L17.0428448,54.1975288z"
	/>
<path fill-rule="evenodd" clip-rule="evenodd" fill="#2D458F" d="M50.6317863,10.3851042H10.855175v27.116581
	c0,12.4026184,18.8705502,22.2665634,19.6821899,22.6785622l0.1184597,0.0671501l0.1219311-0.0671501
	c0.8277264-0.4222565,20.1114426-10.6151962,20.1114426-23.5608521V10.3851042H50.6317863L50.6317863,10.3851042
	L50.6317863,10.3851042z"/>
<path fill-rule="evenodd" clip-rule="evenodd" fill="#F6C022" d="M47.545414,45.1214409
	c-6.3755989-7.3159447-10.358017-11.9006233-10.8385658-12.468605c0.1196136-0.132206,12.4072838-14.0991116,13.6493416-15.5006523
	c0-3.4678278,0-6.0487051,0-6.2193804c-0.1375694,0-2.6890678,0-6.4129066,0
	c-1.170475,1.3045444-13.0449696,14.7410078-13.2009678,14.9221487
	c-0.1548214-0.1811409-11.8733406-13.6176043-12.9922886-14.9221487c-3.7070408,0-6.2231102,0-6.3609095,0
	c0,0.1706753,0,2.8040133,0,6.3515825c1.2238703,1.4115677,13.304492,15.2476692,13.425271,15.3878021
	c-0.120779,0.1377983-10.0632992,11.4463921-10.9945507,12.5028801c1.5495987,2.5069618,3.6704464,4.8022156,5.9099846,6.7966881
	c0.8981304-1.0233498,10.8576717-12.3093529,11.0124931-12.4755974c0.1377983,0.1709061,9.9448528,11.3986206,10.8418407,12.4245377
	C43.7882309,49.9283218,45.9435844,47.6330681,47.545414,45.1214409L47.545414,45.1214409L47.545414,45.1214409z"/>
<polygon fill-rule="evenodd" clip-rule="evenodd" fill="#2D458F" points="36.6375999,26.9592361 34.8956413,25.2128487 
	34.7930489,25.2128487 25.1079407,25.2128487 25.1079407,37.2806473 26.5903873,38.7654266 26.5903873,40.433239 
	28.6408195,40.433239 28.6408195,39.0738983 36.6375999,39.0738983 36.6375999,26.9592361 36.6375999,26.9592361 "/>
<path fill-rule="evenodd" clip-rule="evenodd" fill="#F6C022" d="M25.9174805,37.3114243h0.6729069v0.6775703
	C26.3478985,37.7635269,26.1075077,37.498188,25.9174805,37.3114243L25.9174805,37.3114243L25.9174805,37.3114243z"/>
<path fill-rule="evenodd" clip-rule="evenodd" fill="#F6C022" d="M36.0864029,38.5285339c-0.3791237,0-4.9796543,0-7.4455833,0
	v-1.2171097h6.2548218V25.9790211c0.3802872,0.3744583,1.0872383,1.0963306,1.1907616,1.2101135
	C36.0864029,27.4111061,36.0864029,38.0001869,36.0864029,38.5285339L36.0864029,38.5285339L36.0864029,38.5285339z"/>
<path fill-rule="evenodd" clip-rule="evenodd" fill="#E93E37" d="M28.1068783,37.3958282c0,0.409668,0,2.0697861,0,2.4876137
	c-0.2926197,0-0.68993,0-0.9825478,0c0-0.4178276,0-2.0779457,0-2.4876137
	C27.4169483,37.3958282,27.8142586,37.3958282,28.1068783,37.3958282L28.1068783,37.3958282L28.1068783,37.3958282z"/>
<path fill-rule="evenodd" clip-rule="evenodd" fill="#2D458F" d="M30.5009918,12.5891905
	c0,0-0.9300861,1.6542616-1.0690517,1.8909492c-0.2744312,0-2.6002293-0.0102596-2.6002293-0.0102596
	s1.1702442,2.0562334,1.3080425,2.2999163c-0.1377983,0.2287331-1.3080425,2.2929211-1.3080425,2.2929211
	s2.325798-0.0172539,2.6002293-0.0172539c0.1389656,0.23806,1.293354,2.312273,1.293354,2.312273
	s1.172575-2.074213,1.309206-2.312273c0.2597466,0,2.6037407,0.0172539,2.6037407,0.0172539
	s-1.1725883-2.052763-1.3274078-2.2929211c0.1548195-0.2436829,1.3446503-2.2896566,1.3446503-2.2896566s-2.3612366,0-2.6209831,0
	c-0.136631-0.2322302-1.309206-2.3052797-1.309206-2.3052797L30.5009918,12.5891905L30.5009918,12.5891905L30.5009918,12.5891905z"
	/>
<path fill-rule="evenodd" clip-rule="evenodd" fill="#F6C022" d="M29.8133945,14.8947029
	c0,0,0.6192799-1.0998287,0.9118996-1.6223459c0.2926197,0.5225172,0.9837132,1.7543154,0.9837132,1.7543154
	s1.4127312,0,1.9991379-0.0055962c-0.2937851,0.5225182-0.9995689,1.7487202-0.9995689,1.7487202
	s0.7057838,1.2180424,0.9995689,1.7451954c-0.5864067-0.0090656-1.9991379-0.0102329-1.9991379-0.0102329
	s-0.6910934,1.2317982-0.9837132,1.7589531c-0.2926197-0.5271549-0.9813824-1.7589531-0.9813824-1.7589531
	s-1.3968773,0.0011673-1.9821148,0.0102329c0.2926197-0.527153,0.9995689-1.7451954,0.9995689-1.7451954
	s-0.7069492-1.2341299-0.9995689-1.7487202c0.5852375,0,1.9821148,0.0055962,1.9821148,0.0055962L29.8133945,14.8947029
	L29.8133945,14.8947029L29.8133945,14.8947029z"/>
<path fill-rule="evenodd" clip-rule="evenodd" fill="#2D458F" d="M30.5009918,45.8524055
	c0,0-0.9300861,1.6496239-1.0690517,1.8830185c-0.2744312,0-2.6002293,0-2.6002293,0s1.1702442,2.0504341,1.3080425,2.2917557
	c-0.1377983,0.2392273-1.3080425,2.2873268-1.3080425,2.2873268s2.325798-0.0046616,2.6002293-0.011425
	c0.1389656,0.2436562,1.293354,2.3078156,1.293354,2.3078156s1.172575-2.0641594,1.309206-2.3078156
	c0.2597466,0.0067635,2.6037407,0.011425,2.6037407,0.011425s-1.1725883-2.0480995-1.3274078-2.2873268
	c0.1548195-0.2413216,1.3446503-2.2917557,1.3446503-2.2917557s-2.3612366,0-2.6209831,0
	c-0.136631-0.2333946-1.309206-2.3076096-1.309206-2.3076096L30.5009918,45.8524055L30.5009918,45.8524055L30.5009918,45.8524055z"
	/>
<path fill-rule="evenodd" clip-rule="evenodd" fill="#F6C022" d="M29.8133945,48.1499634
	c0,0,0.6192799-1.0953712,0.9118996-1.6246529c0.2926197,0.5292816,0.9837132,1.7613106,0.9837132,1.7613106
	s1.4127312,0,1.9991379-0.0149231c-0.2937851,0.5339432-0.9995689,1.7554817-0.9995689,1.7554817
	s0.7057838,1.2206078,0.9995689,1.7431259c-0.5864067,0-1.9991379-0.0079269-1.9991379-0.0079269
	s-0.6910934,1.2317963-0.9837132,1.7531471c-0.2926197-0.5213509-0.9813824-1.7531471-0.9813824-1.7531471
	s-1.3968773,0.0079269-1.9821148,0.0079269c0.2926197-0.5225182,0.9995689-1.7431259,0.9995689-1.7431259
	s-0.7069492-1.2329636-0.9995689-1.7554817c0.5852375,0,1.9821148,0.0149231,1.9821148,0.0149231L29.8133945,48.1499634
	L29.8133945,48.1499634L29.8133945,48.1499634z"/>
<path fill-rule="evenodd" clip-rule="evenodd" fill="#2D458F" d="M16.661623,28.0602303
	c0,0-0.9291525,1.6472931-1.0667181,1.8862858c-0.2585773,0-2.6037273-0.0067616-2.6037273-0.0067616
	s1.1737404,2.0583591,1.3115396,2.2940865c-0.1377993,0.2287331-1.3115396,2.2917557-1.3115396,2.2917557
	s2.34515-0.0046616,2.6037273-0.011425c0.1375656,0.2483177,1.2931204,2.3066788,1.2931204,2.3066788
	s1.1716423-2.0583611,1.3094406-2.3066788c0.2571774,0.0067635,2.6013947,0.011425,2.6013947,0.011425
	s-1.1886616-2.0504303-1.3091946-2.2917557c0.1387196-0.2357273,1.3262157-2.2905884,1.3262157-2.2905884
	s-2.3612385,0.0032635-2.6184158,0.0032635c-0.1377983-0.2322292-1.3094406-2.2996826-1.3094406-2.2996826L16.661623,28.0602303
	L16.661623,28.0602303L16.661623,28.0602303z"/>
<path fill-rule="evenodd" clip-rule="evenodd" fill="#F6C022" d="M15.973794,30.3552494
	c0,0,0.6206789-1.0998268,0.9142313-1.6176815c0.2926178,0.5178547,0.999567,1.7578125,0.999567,1.7578125
	s1.3947792-0.0034962,1.9982033-0.0102596c-0.309639,0.5201874-1.0168209,1.7487202-1.0168209,1.7487202
	s0.7071819,1.2262039,0.9986343,1.7475548c-0.6022587-0.0011673-1.9800167-0.0079269-1.9800167-0.0079269
	s-0.7069492,1.2329636-0.999567,1.7522163c-0.2935524-0.5192528-0.9834805-1.7522163-0.9834805-1.7522163
	s-1.3947792,0.0067596-1.9832821,0.0079269c0.2937851-0.5213509,1.0007467-1.7475548,1.0007467-1.7475548
	s-0.7069616-1.2285328-1.0007467-1.7487202c0.5885029,0,1.9832821,0.0102596,1.9832821,0.0102596L15.973794,30.3552494
	L15.973794,30.3552494L15.973794,30.3552494z"/>
<path fill-rule="evenodd" clip-rule="evenodd" fill="#2D458F" d="M44.3928223,28.0602303
	c0,0-0.930088,1.6472931-1.0690536,1.8862858c-0.2753525,0-2.6013947-0.0067616-2.6013947-0.0067616
	s1.1714096,2.0583591,1.3092079,2.2940865c-0.1377983,0.2287331-1.3092079,2.2917557-1.3092079,2.2917557
	s2.3260422-0.0046616,2.6013947-0.011425c0.1389656,0.2483177,1.293354,2.3066788,1.293354,2.3066788
	s1.1704788-2.0583611,1.3092079-2.3066788c0.2585793,0.0067635,2.5855408,0.011425,2.5855408,0.011425
	s-1.1543884-2.0504303-1.3103752-2.2917557c0.1559868-0.2357273,1.343483-2.2905884,1.343483-2.2905884
	s-2.3600693,0.0032635-2.6186485,0.0032635c-0.1387291-0.2322292-1.3092079-2.2996826-1.3092079-2.2996826L44.3928223,28.0602303
	L44.3928223,28.0602303L44.3928223,28.0602303z"/>
<path fill-rule="evenodd" clip-rule="evenodd" fill="#F6C022" d="M43.7028923,30.3552494
	c0,0,0.6216125-1.0998268,0.9142303-1.6176815c0.2926178,0.5178547,0.9995689,1.7578125,0.9995689,1.7578125
	s1.3947792-0.0034962,1.9809494-0.0102596c-0.2926178,0.5201874-0.9995689,1.7487202-0.9995689,1.7487202
	s0.68993,1.2262039,0.9995689,1.7475548c-0.6022606-0.0011673-1.9809494-0.0079269-1.9809494-0.0079269
	s-0.7069511,1.2329636-0.9995689,1.7522163c-0.2926178-0.5192528-0.9837112-1.7522163-0.9837112-1.7522163
	s-1.3945465,0.0067596-1.9809494,0.0079269c0.2937851-0.5213509,0.9986343-1.7475548,0.9986343-1.7475548
	s-0.7048492-1.2285328-0.9986343-1.7487202c0.5864029,0,1.9809494,0.0102596,1.9809494,0.0102596L43.7028923,30.3552494
	L43.7028923,30.3552494L43.7028923,30.3552494z"/>
<path fill-rule="evenodd" clip-rule="evenodd" fill="#E93E37" d="M34.3456116,25.7579823c0,0.5148239,0,10.4843655,0,10.9945507
	c-0.4996681,0-8.1856422,0-8.6855431,0c0-0.5101852,0-10.4797268,0-10.9945507
	C26.1599693,25.7579823,33.8459435,25.7579823,34.3456116,25.7579823L34.3456116,25.7579823L34.3456116,25.7579823z"/>
<path fill-rule="evenodd" clip-rule="evenodd" fill="#2D458F" d="M29.795208,27.3940849
	c0,0-0.9312515,1.6587181-1.0678844,1.8944454c-0.2585659,0-2.6037273-0.011425-2.6037273-0.011425
	s1.1714096,2.0583611,1.3115406,2.2884922c-0.140131,0.2515831-1.3115406,2.2984886-1.3115406,2.2984886
	s2.3451614-0.0079002,2.6037273-0.0079002c0.1366329,0.2424889,1.3092079,2.3031807,1.3092079,2.3031807
	s1.1543884-2.0606918,1.2763329-2.3031807c0.2741985,0,2.6184139,0.0079002,2.6184139,0.0079002
	s-1.1714058-2.0469055-1.3092079-2.2905617c0.1378021-0.2380581,1.3262291-2.2884903,1.3262291-2.2884903
	s-2.3612366,0.0034962-2.6354351,0.0034962c-0.1219444-0.2357273-1.2763329-2.3020134-1.2763329-2.3020134L29.795208,27.3940849
	L29.795208,27.3940849L29.795208,27.3940849z"/>
<path fill-rule="evenodd" clip-rule="evenodd" fill="#F6C022" d="M29.1234665,29.6961002
	c0,0,0.6022587-1.0998287,0.913065-1.6200142c0.2767639,0.5201855,0.9813824,1.7578125,0.9813824,1.7578125
	s1.3968773-0.0090942,1.9832802-0.0090942c-0.2926178,0.5190201-0.9995689,1.7407932-0.9995689,1.7407932
	s0.6887627,1.2271347,0.9995689,1.7531509c-0.5864029-0.0032654-1.9832802-0.0032654-1.9832802-0.0032654
	s-0.7046185,1.2306328-0.9813824,1.7543144c-0.3108063-0.5236816-0.9995689-1.7543144-0.9995689-1.7543144
	s-1.3968773,0-1.9821148,0.0032654c0.2926197-0.5260162,0.9995689-1.7531509,0.9995689-1.7531509
	s-0.7069492-1.2217731-0.9995689-1.7407932c0.5852375,0,1.9821148,0.0090942,1.9821148,0.0090942L29.1234665,29.6961002
	L29.1234665,29.6961002L29.1234665,29.6961002z"/>
<path fill="#231F20" d="M65.758728,65.4790268c-0.0673676,0.0025635-0.1697083,0.0204697-0.3087158,0.0528793
	c-0.1381531,0.0332565-0.2379379,0.0673676-0.2976303,0.1023331c-0.0861359,0.0554352-0.1441269,0.1603317-0.1739731,0.316391
	c-0.0298538,0.1560669-0.0443497,0.35392-0.0443497,0.5935593v3.4266052H64.621933l-3.0837746-3.8282776v2.4134598
	c0,0.27034,0.0187607,0.4784317,0.0554314,0.6234055c0.0375252,0.1449814,0.093811,0.2481689,0.1705627,0.3104248
	c0.0545807,0.04776,0.1688576,0.0929565,0.3402748,0.1347427c0.1722679,0.0417862,0.2856903,0.0639648,0.3411255,0.0656662
	v0.2345276h-2.086834v-0.2345276c0.063961-0.0042648,0.1731224-0.0255814,0.3257751-0.0639572
	c0.1535034-0.0383759,0.2490196-0.0733414,0.2873955-0.1040421c0.0835762-0.0614014,0.1407166-0.1552124,0.1722679-0.2814331
	c0.0307045-0.1270676,0.0460548-0.3428268,0.0460548-0.6481323v-2.3051529c0-0.1014862-0.0187645-0.2021179-0.0571404-0.3036041
	s-0.0895462-0.1790924-0.1543579-0.2345276c-0.0861359-0.0724869-0.2021179-0.1338882-0.3496552-0.1859131
	c-0.1466827-0.0520172-0.2660751-0.0793076-0.3564758-0.0844269v-0.2336655h1.4531937l2.8603363,3.5673141v-2.2258453
	c0-0.2720413-0.0196152-0.4818344-0.0571365-0.6276703c-0.0383759-0.1458282-0.093811-0.2439041-0.165451-0.2916565
	c-0.0665207-0.0417938-0.1765289-0.0827255-0.328331-0.1219559c-0.1518021-0.0400848-0.2669296-0.0614014-0.3453903-0.0665207
	v-0.2336655h2.068924V65.4790268z"/>
<path fill="#231F20" d="M73.478447,68.5465927l-0.0972214,1.3781509h-4.2231293v-0.2345276
	c0.0716324-0.0042648,0.1671448-0.0136414,0.2865448-0.0272903c0.1193924-0.0144958,0.1969986-0.0298462,0.2328186-0.0451965
	c0.0767517-0.0324097,0.1296234-0.0758972,0.1594696-0.1279221c0.0298538-0.0528717,0.0452042-0.1202469,0.0452042-0.2012634
	v-3.3643494c0-0.0724869-0.013649-0.1364441-0.0392303-0.1927338c-0.0264359-0.056282-0.081871-0.1014862-0.1654434-0.1364517
	c-0.0639648-0.0289917-0.1509476-0.0537262-0.2601089-0.0758972c-0.1083069-0.022171-0.1952972-0.0349655-0.2592545-0.0400848
	v-0.2336655h3.9365845v1.1274185h-0.2686386c-0.04776-0.1671524-0.1518021-0.3445435-0.3104248-0.5321579
	c-0.1586227-0.1884689-0.3104248-0.2908096-0.4536972-0.3087158c-0.0741959-0.0085297-0.1620331-0.0153503-0.2652206-0.0196152
	c-0.1023407-0.0042648-0.2200317-0.0068283-0.3513641-0.0068283H70.645401v1.8599854h0.5739441
	c0.1842041,0,0.3189468-0.0153503,0.4033813-0.0477524c0.0852814-0.0315552,0.1594696-0.0852814,0.2242889-0.1594772
	c0.0528717-0.0639648,0.0972214-0.1492462,0.1347427-0.2558441c0.0366669-0.1066055,0.0614014-0.2072372,0.0733414-0.3018951
	h0.2686386v1.8335495h-0.2686386c-0.0093842-0.105751-0.03582-0.2166214-0.0776062-0.3343048
	c-0.0417862-0.117691-0.0852814-0.2029724-0.1304779-0.2558441c-0.0741959-0.0861359-0.1586227-0.141571-0.2524338-0.1680069
	c-0.0946655-0.0264359-0.2200241-0.0400772-0.3752365-0.0400772H70.645401v1.4028702
	c0,0.1407166,0.0110855,0.2515869,0.032402,0.3326035c0.0221786,0.0810165,0.0639648,0.1424179,0.1253662,0.1842041
	c0.0622559,0.0417862,0.1475372,0.0690765,0.2549896,0.0810165s0.2601089,0.0179138,0.4588165,0.0179138
	c0.0793076,0,0.1833496,0,0.3121262,0s0.2379379-0.0042648,0.3266296-0.013649
	c0.0904007-0.0085297,0.1842041-0.0247345,0.2814255-0.04776c0.0963669-0.0230255,0.165451-0.0537262,0.2055283-0.0938034
	c0.1100159-0.105751,0.2251434-0.2652283,0.3462448-0.4792862c0.1211014-0.2149048,0.1978531-0.3726807,0.2311096-0.4733124
	H73.478447z"/>
<path fill="#231F20" d="M83.9960251,65.4790268c-0.0597,0.0025635-0.129631,0.0153503-0.2080917,0.0383759
	c-0.0793076,0.0230255-0.1517944,0.0528793-0.2191696,0.0904007c-0.0835724,0.0486069-0.1509476,0.1040421-0.2021179,0.1662979
	c-0.0520172,0.0631104-0.0963669,0.1500931-0.1347427,0.2626648c-0.1697083,0.5074234-0.3667068,1.1009827-0.5918503,1.7789688
	c-0.2242889,0.6779861-0.4673462,1.4011688-0.7274551,2.1687012h-0.3300323l-1.2843399-3.6048355l-1.3355026,3.6048355h-0.316391
	c-0.2370834-0.7700882-0.481842-1.5683212-0.7351303-2.3964005c-0.2532806-0.8272324-0.4229965-1.3824081-0.5091248-1.6638412
	c-0.0221786-0.0673676-0.0537262-0.1279221-0.09552-0.1807938c-0.0417862-0.0528717-0.0980682-0.1014862-0.1697083-0.1449814
	c-0.0605469-0.0375214-0.1304779-0.0656662-0.2097931-0.0844269c-0.080162-0.0187607-0.1526489-0.0298462-0.2174683-0.0349655
	v-0.2336655h2.0740433v0.2336655c-0.1816483,0.0093842-0.3360062,0.025589-0.4639282,0.0494614
	c-0.1279221,0.0247345-0.1918869,0.0648193-0.1918869,0.1219559c0,0.022171,0.0034103,0.0511703,0.0102386,0.0878372
	c0.0076752,0.03582,0.0136414,0.0656662,0.0179062,0.0869904c0.0554352,0.1935883,0.1526566,0.5133896,0.2925186,0.9602661
	c0.1398544,0.446022,0.3462372,1.114624,0.6216965,2.0041122l1.2698364-3.4786224h0.3505096l1.2817764,3.5528183
	c0.1722717-0.5458069,0.3206558-1.0233765,0.446022-1.4318771c0.1245117-0.408493,0.2276993-0.7581482,0.3087158-1.0489578
	c0.057991-0.2046738,0.093811-0.3445358,0.1083069-0.4204407c0.0145035-0.0758972,0.0213242-0.1398544,0.0213242-0.1927338
	c0-0.0750427-0.0554352-0.1372986-0.1671524-0.1884689c-0.1108627-0.0503159-0.2908096-0.0844269-0.5389786-0.1023407v-0.2336655
	h1.8454895V65.4790268z"/>
<path fill="#231F20" d="M97.4524841,68.4638748l-0.1679993,1.4608688h-4.087532v-0.1151352l3.2014542-4.3041458h-1.1726151
	c-0.1364517,0-0.2498779,0.0025635-0.34198,0.0068283s-0.1765289,0.0127869-0.2532806,0.0264359
	c-0.1577759,0.0281448-0.3351593,0.1483917-0.5321579,0.3590317c-0.1969986,0.2115021-0.3462448,0.4349365-0.4468765,0.6694565
	h-0.2507248l0.1543579-1.3218536h3.8112259v0.1151276l-3.2014618,4.3041458h1.2084351
	c0.2029724,0,0.4195862-0.013649,0.6489868-0.0400848c0.2294083-0.0264359,0.3786545-0.0716324,0.447731-0.1347427
	c0.1552124-0.1364517,0.3001862-0.3036041,0.434082-0.5014572c0.1338882-0.1978455,0.2328186-0.372673,0.2976303-0.5244751
	H97.4524841z"/>
<path fill="#231F20" d="M105.4694443,68.5465927l-0.0972214,1.3781509h-4.2231293v-0.2345276
	c0.07164-0.0042648,0.1671524-0.0136414,0.2865448-0.0272903c0.1193924-0.0144958,0.1969986-0.0298462,0.2328186-0.0451965
	c0.0767517-0.0324097,0.129631-0.0758972,0.1594772-0.1279221c0.0298462-0.0528717,0.0451965-0.1202469,0.0451965-0.2012634
	v-3.3643494c0-0.0724869-0.0136414-0.1364441-0.0392303-0.1927338c-0.0264359-0.056282-0.081871-0.1014862-0.1654434-0.1364517
	c-0.0639572-0.0289917-0.1509476-0.0537262-0.2601089-0.0758972c-0.1083069-0.022171-0.1952896-0.0349655-0.2592545-0.0400848
	v-0.2336655h3.9365845v1.1274185h-0.2686386c-0.0477524-0.1671524-0.1517944-0.3445435-0.3104248-0.5321579
	c-0.1586227-0.1884689-0.3104172-0.2908096-0.4536896-0.3087158c-0.0741959-0.0085297-0.1620407-0.0153503-0.2652283-0.0196152
	c-0.1023407-0.0042648-0.2200241-0.0068283-0.3513565-0.0068283h-0.799942v1.8599854h0.5739441
	c0.1842117,0,0.3189545-0.0153503,0.4033813-0.0477524c0.0852814-0.0315552,0.1594772-0.0852814,0.2242889-0.1594772
	c0.0528717-0.0639648,0.0972214-0.1492462,0.1347427-0.2558441c0.0366745-0.1066055,0.0614014-0.2072372,0.0733414-0.3018951
	h0.2686386v1.8335495h-0.2686386c-0.0093765-0.105751-0.0358124-0.2166214-0.0776062-0.3343048
	c-0.0417862-0.117691-0.0852814-0.2029724-0.1304779-0.2558441c-0.0741959-0.0861359-0.1586227-0.141571-0.2524338-0.1680069
	c-0.0946579-0.0264359-0.2200241-0.0400772-0.3752365-0.0400772h-0.5739441v1.4028702
	c0,0.1407166,0.0110855,0.2515869,0.0324097,0.3326035c0.022171,0.0810165,0.0639572,0.1424179,0.1253586,0.1842041
	c0.0622559,0.0417862,0.1475372,0.0690765,0.2549973,0.0810165c0.1074524,0.01194,0.2601089,0.0179138,0.4588089,0.0179138
	c0.0793152,0,0.1833572,0,0.3121338,0c0.1287689,0,0.2379303-0.0042648,0.326622-0.013649
	c0.0904007-0.0085297,0.1842117-0.0247345,0.2814331-0.04776c0.0963669-0.0230255,0.1654434-0.0537262,0.2055283-0.0938034
	c0.1100082-0.105751,0.2251434-0.2652283,0.3462372-0.4792862c0.1211014-0.2149048,0.1978531-0.3726807,0.2311172-0.4733124
	H105.4694443z"/>
<path fill="#231F20" d="M114.1368561,69.9247437h-2.114975v-0.2345276c0.1859131-0.010231,0.3411255-0.032402,0.4639282-0.0656662
	c0.1228104-0.0332565,0.1850662-0.0733414,0.1850662-0.1219482c0-0.0196152-0.0025635-0.0443497-0.0076752-0.0724945
	c-0.0042648-0.0289917-0.01194-0.0537262-0.0213242-0.0758972l-0.4212875-1.0489578h-1.7857895
	c-0.0673752,0.1543579-0.1219559,0.2882462-0.1637421,0.4025269c-0.0417862,0.1142731-0.0793152,0.2200241-0.1134262,0.316391
	c-0.0307007,0.0946655-0.0520172,0.1714172-0.0639572,0.2311172c-0.0127945,0.0596924-0.0179138,0.1074524-0.0179138,0.1449738
	c0,0.0878372,0.0750504,0.1560669,0.2251434,0.2046738c0.1509476,0.0486145,0.3206558,0.0767593,0.5099869,0.0852814v0.2345276
	h-1.916275v-0.2345276c0.0622559-0.0042648,0.1398621-0.0162048,0.2328186-0.0375214
	c0.0929565-0.0204697,0.1697083-0.0486069,0.2294083-0.0844269c0.0955124-0.0588455,0.1697083-0.1211014,0.22258-0.1859131
	c0.0520248-0.0648193,0.1040497-0.1543579,0.153511-0.2686386c0.2558441-0.5875854,0.5381241-1.2468109,0.8468399-1.9785233
	c0.307869-0.7325668,0.5833282-1.3841171,0.8246689-1.9563522h0.2865448l1.6962509,4.0372162
	c0.0358124,0.0852814,0.0758972,0.1543579,0.1219482,0.2072296c0.0452042,0.0528793,0.1083069,0.1048965,0.1901779,0.1552124
	c0.0545807,0.0307007,0.1262207,0.0562897,0.2149124,0.0776062c0.0886917,0.0204697,0.1620331,0.0324097,0.22258,0.034111
	V69.9247437z M112.0892563,68.011879l-0.7700958-1.8156357l-0.7598495,1.8156357H112.0892563z"/>
<path fill="#231F20" d="M121.7846832,68.5329514l-0.10746,1.3917923h-3.9766617v-0.2345276
	c0.0571365-0.0042648,0.1407089-0.01194,0.2490158-0.0230255c0.1091614-0.010231,0.1850662-0.0247269,0.2277069-0.0426407
	c0.0716324-0.0281372,0.1236572-0.069931,0.1560593-0.1253586c0.0324097-0.0545807,0.0486145-0.1253662,0.0486145-0.2106476
	v-3.3507004c0-0.0750504-0.013649-0.1407166-0.0409393-0.1978531c-0.0281372-0.0571365-0.0827179-0.1031952-0.1637344-0.1390076
	c-0.0545807-0.0264359-0.1321869-0.0520248-0.2311172-0.0767517c-0.0989227-0.025589-0.1807938-0.0400848-0.2456055-0.0452042
	v-0.2336655h2.1482315v0.2336655c-0.0673676,0.0025635-0.1543579,0.013649-0.2601089,0.0332642
	c-0.1065979,0.0196152-0.1833496,0.0375214-0.2311096,0.0528717c-0.081871,0.0264359-0.1373062,0.0716324-0.1671524,0.1347427
	c-0.0298462,0.0639648-0.0451965,0.1321869-0.0451965,0.2046738v3.1426163c0,0.1458359,0.0085297,0.2584076,0.02388,0.3385696
	s0.0520172,0.1424179,0.1091537,0.1859131c0.0545807,0.0400848,0.1364517,0.0656662,0.2456131,0.0776062
	s0.2609634,0.0179062,0.4571075,0.0179062c0.0886917,0,0.1807938-0.0017014,0.2763138-0.0059662
	c0.0955124-0.0042648,0.1859131-0.013649,0.272049-0.0264359c0.0835724-0.013649,0.1611786-0.0315552,0.2319641-0.0545807
	c0.069931-0.0230255,0.1219482-0.0520248,0.1552124-0.0878448c0.0980682-0.1006317,0.2123489-0.2541351,0.3428268-0.4596634
	s0.2208786-0.3718262,0.27034-0.4997482H121.7846832z"/>
<path fill="#231F20" d="M130.4286346,69.9247437h-2.114975v-0.2345276c0.1859131-0.010231,0.3411255-0.032402,0.4639282-0.0656662
	c0.122818-0.0332565,0.1850739-0.0733414,0.1850739-0.1219482c0-0.0196152-0.0025635-0.0443497-0.0076752-0.0724945
	c-0.0042725-0.0289917-0.0119476-0.0537262-0.0213318-0.0758972l-0.4212799-1.0489578h-1.7857971
	c-0.0673676,0.1543579-0.1219482,0.2882462-0.1637344,0.4025269c-0.0417938,0.1142731-0.0793152,0.2200241-0.1134262,0.316391
	c-0.0307007,0.0946655-0.0520248,0.1714172-0.0639648,0.2311172c-0.0127869,0.0596924-0.0179062,0.1074524-0.0179062,0.1449738
	c0,0.0878372,0.0750504,0.1560669,0.2251434,0.2046738c0.1509476,0.0486145,0.3206558,0.0767593,0.5099792,0.0852814v0.2345276
	h-1.9162674v-0.2345276c0.0622559-0.0042648,0.1398621-0.0162048,0.2328186-0.0375214
	c0.0929565-0.0204697,0.1697083-0.0486069,0.2294083-0.0844269c0.0955124-0.0588455,0.1697083-0.1211014,0.22258-0.1859131
	c0.0520248-0.0648193,0.1040421-0.1543579,0.153511-0.2686386c0.2558365-0.5875854,0.5381241-1.2468109,0.8468399-1.9785233
	c0.3078613-0.7325668,0.5833206-1.3841171,0.8246689-1.9563522h0.2865448l1.6962433,4.0372162
	c0.0358276,0.0852814,0.0758972,0.1543579,0.1219482,0.2072296c0.0452118,0.0528793,0.1083069,0.1048965,0.1901855,0.1552124
	c0.0545807,0.0307007,0.1262207,0.0562897,0.2149048,0.0776062c0.0886993,0.0204697,0.1620331,0.0324097,0.22258,0.034111
	V69.9247437z M128.3810425,68.011879l-0.7700958-1.8156357l-0.7598572,1.8156357H128.3810425z"/>
<path fill="#231F20" d="M139.414032,65.4790268c-0.0673676,0.0025635-0.1697083,0.0204697-0.3087158,0.0528793
	c-0.1381531,0.0332565-0.2379303,0.0673676-0.2976379,0.1023331c-0.0861359,0.0554352-0.1441193,0.1603317-0.1739655,0.316391
	c-0.0298462,0.1560669-0.0443573,0.35392-0.0443573,0.5935593v3.4266052h-0.3121185l-3.0837708-3.8282776v2.4134598
	c0,0.27034,0.0187531,0.4784317,0.0554352,0.6234055c0.0375214,0.1449814,0.0937958,0.2481689,0.1705627,0.3104248
	c0.0545654,0.04776,0.1688538,0.0929565,0.340271,0.1347427c0.1722565,0.0417862,0.2856903,0.0639648,0.3411255,0.0656662v0.2345276
	h-2.0868378v-0.2345276c0.0639648-0.0042648,0.1731262-0.0255814,0.3257751-0.0639572
	c0.1535034-0.0383759,0.2490234-0.0733414,0.2873993-0.1040421c0.0835724-0.0614014,0.1407166-0.1552124,0.1722717-0.2814331
	c0.0307007-0.1270676,0.046051-0.3428268,0.046051-0.6481323v-2.3051529c0-0.1014862-0.0187683-0.2021179-0.0571442-0.3036041
	s-0.0895386-0.1790924-0.1543579-0.2345276c-0.0861359-0.0724869-0.2021179-0.1338882-0.3496552-0.1859131
	c-0.1466827-0.0520172-0.2660828-0.0793076-0.3564758-0.0844269v-0.2336655h1.453186l2.8603363,3.5673141v-2.2258453
	c0-0.2720413-0.0196075-0.4818344-0.0571289-0.6276703c-0.0383759-0.1458282-0.093811-0.2439041-0.165451-0.2916565
	c-0.0665131-0.0417938-0.1765289-0.0827255-0.3283386-0.1219559c-0.1517944-0.0400848-0.266922-0.0614014-0.3453827-0.0665207
	v-0.2336655h2.068924V65.4790268z"/>
<path fill="#231F20" d="M148.1769562,67.6127625c0,0.3982697-0.0810089,0.74366-0.2438965,1.0353165
	c-0.1628876,0.2925186-0.3743896,0.5321579-0.634491,0.7189255c-0.2635193,0.1876144-0.5585938,0.326622-0.8860779,0.4195786
	c-0.3274841,0.0921097-0.6651917,0.1381607-1.0148468,0.1381607h-2.1081543v-0.2345276
	c0.0690765,0,0.1594696-0.0059662,0.2711945-0.0179062c0.1108704-0.01194,0.1842041-0.0255814,0.2200317-0.0409393
	c0.0716248-0.0289917,0.1236572-0.0707779,0.1560669-0.1270676c0.0323944-0.056282,0.0485992-0.1236572,0.0485992-0.2029648
	v-3.3771439c0-0.0741959-0.0136414-0.1415634-0.0409241-0.2012634c-0.0281525-0.0588455-0.0827332-0.1065979-0.1637421-0.1415634
	c-0.0742035-0.0324097-0.1543579-0.0571365-0.2396393-0.0724869c-0.0861359-0.015358-0.1603394-0.0247345-0.2225952-0.0298538
	v-0.2336655h2.2232819c0.3053131,0,0.6072083,0.0434875,0.9031372,0.1304779
	c0.2967834,0.0861359,0.5543213,0.2038193,0.774353,0.350502c0.2993317,0.1961517,0.5330048,0.4519958,0.702713,0.7683868
	C148.0916748,66.8119736,148.1769562,67.1846542,148.1769562,67.6127625z M147.2985687,67.6110611
	c0-0.3138351-0.0451965-0.5978241-0.1364594-0.8511047c-0.0912476-0.2541428-0.2234344-0.4758759-0.3982544-0.6643448
	c-0.1645966-0.1799393-0.367569-0.3215103-0.6072083-0.4246979c-0.2404938-0.1040421-0.5074158-0.1552124-0.801651-0.1552124
	c-0.0980682,0-0.2089386,0.0017014-0.3317413,0.0051117c-0.1228027,0.003418-0.2149048,0.0059738-0.2745972,0.0076752v3.595459
	c0,0.1995621,0.0639496,0.3385696,0.1901703,0.4153214c0.1270752,0.0767517,0.3215179,0.1151352,0.5850372,0.1151352
	c0.3036041,0,0.5688171-0.049469,0.7956696-0.1483917c0.2268524-0.0989304,0.4110565-0.2362289,0.5517731-0.411911
	c0.1483917-0.1842041,0.2566986-0.398262,0.3249207-0.6404648
	C147.2644501,68.2105865,147.2985687,67.9300156,147.2985687,67.6110611z"/>
</svg>
